<svg width="215" height="87" viewBox="0 0 215 87" fill="none" xmlns="http://www.w3.org/2000/svg">
<g filter="url(#filter0_dd_1303_2167)">
<mask id="path-1-inside-1_1303_2167" fill="white">
<path fill-rule="evenodd" clip-rule="evenodd" d="M1.01953 53.3823V41.2922H3.60284C8.22009 31.0285 18.5353 23.8823 30.5195 23.8823H183.52C195.504 23.8823 205.819 31.0285 210.436 41.2922H213.02V53.3823V53.8659H213.016C212.757 69.9353 199.65 82.8823 183.52 82.8823H30.5195C14.3886 82.8823 1.28169 69.9353 1.02342 53.8659H1.01953V53.3823Z"/>
</mask>
<path fill-rule="evenodd" clip-rule="evenodd" d="M1.01953 53.3823V41.2922H3.60284C8.22009 31.0285 18.5353 23.8823 30.5195 23.8823H183.52C195.504 23.8823 205.819 31.0285 210.436 41.2922H213.02V53.3823V53.8659H213.016C212.757 69.9353 199.65 82.8823 183.52 82.8823H30.5195C14.3886 82.8823 1.28169 69.9353 1.02342 53.8659H1.01953V53.3823Z" fill="url(#paint0_linear_1303_2167)"/>
<path d="M1.01953 41.2922V40.2922H0.0195312V41.2922H1.01953ZM3.60284 41.2922V42.2922H4.24951L4.51481 41.7024L3.60284 41.2922ZM210.436 41.2922L209.524 41.7024L209.79 42.2922H210.436V41.2922ZM213.02 41.2922H214.02V40.2922H213.02V41.2922ZM213.02 53.8659V54.8659H214.02V53.8659H213.02ZM213.016 53.8659V52.8659H212.032L212.016 53.8499L213.016 53.8659ZM1.02342 53.8659L2.02329 53.8499L2.00747 52.8659H1.02342V53.8659ZM1.01953 53.8659H0.0195312V54.8659H1.01953V53.8659ZM2.01953 53.3823V41.2922H0.0195312V53.3823H2.01953ZM1.01953 42.2922H3.60284V40.2922H1.01953V42.2922ZM4.51481 41.7024C8.97652 31.7846 18.9431 24.8823 30.5195 24.8823V22.8823C18.1275 22.8823 7.46366 30.2725 2.69087 40.8819L4.51481 41.7024ZM30.5195 24.8823H183.52V22.8823H30.5195V24.8823ZM183.52 24.8823C195.096 24.8823 205.063 31.7846 209.524 41.7024L211.348 40.8819C206.575 30.2725 195.912 22.8823 183.52 22.8823V24.8823ZM210.436 42.2922H213.02V40.2922H210.436V42.2922ZM212.02 41.2922V53.3823H214.02V41.2922H212.02ZM212.02 53.3823V53.8659H214.02V53.3823H212.02ZM213.02 52.8659H213.016V54.8659H213.02V52.8659ZM212.016 53.8499C211.766 69.3741 199.104 81.8823 183.52 81.8823V83.8823C200.197 83.8823 213.748 70.4964 214.016 53.882L212.016 53.8499ZM183.52 81.8823H30.5195V83.8823H183.52V81.8823ZM30.5195 81.8823C14.9355 81.8823 2.2728 69.3741 2.02329 53.8499L0.0235443 53.882C0.290581 70.4964 13.8417 83.8823 30.5195 83.8823V81.8823ZM1.02342 52.8659H1.01953V54.8659H1.02342V52.8659ZM2.01953 53.8659V53.3823H0.0195312V53.8659H2.01953Z" fill="#8DCC2E" mask="url(#path-1-inside-1_1303_2167)"/>
<rect x="1.01953" y="12.8823" width="212" height="61" rx="30.5" fill="url(#paint1_linear_1303_2167)"/>
<rect x="1.01953" y="12.8823" width="212" height="61" rx="30.5" fill="url(#paint2_linear_1303_2167)"/>
<mask id="mask0_1303_2167" style="mask-type:alpha" maskUnits="userSpaceOnUse" x="1" y="12" width="213" height="62">
<rect x="1.01953" y="12.8823" width="212" height="61" rx="30.5" fill="#74BE39"/>
</mask>
<g mask="url(#mask0_1303_2167)">
<ellipse cx="105.855" cy="3.38232" rx="146.769" ry="45.5" fill="#91D742"/>
</g>
<rect x="2.01953" y="13.8823" width="210" height="59" rx="29.5" stroke="url(#paint3_linear_1303_2167)" stroke-width="2"/>
<rect x="2.01953" y="13.8823" width="210" height="59" rx="29.5" stroke="url(#paint4_linear_1303_2167)" stroke-width="2"/>
<g opacity="0.8" filter="url(#filter1_f_1303_2167)">
<ellipse rx="13.2221" ry="3.33256" transform="matrix(0.999931 -0.0117484 0.107618 0.994192 167.599 70.3507)" fill="white"/>
</g>
<g filter="url(#filter2_d_1303_2167)">
<path d="M64.7675 55.7663C62.8902 55.7663 61.2582 55.457 59.8715 54.8383C58.4849 54.2197 57.3649 53.377 56.5115 52.3103L59.2955 49.2383C60.1062 50.1343 60.9915 50.7957 61.9515 51.2223C62.9329 51.649 63.9249 51.8623 64.9275 51.8623C66.0795 51.8623 66.9542 51.6063 67.5515 51.0943C68.1489 50.5823 68.4475 49.8463 68.4475 48.8863C68.4475 48.097 68.2129 47.4997 67.7435 47.0943C67.2955 46.689 66.5275 46.401 65.4395 46.2303L63.1035 45.8463C61.0982 45.505 59.6475 44.769 58.7515 43.6383C57.8555 42.4863 57.4075 41.089 57.4075 39.4463C57.4075 37.2917 58.1115 35.6277 59.5195 34.4543C60.9275 33.2597 62.9009 32.6623 65.4395 32.6623C67.1675 32.6623 68.6715 32.929 69.9515 33.4623C71.2315 33.9957 72.2662 34.721 73.0555 35.6383L70.3355 38.6783C69.7382 38.017 69.0342 37.505 68.2235 37.1423C67.4129 36.7583 66.4955 36.5663 65.4715 36.5663C63.3169 36.5663 62.2395 37.4517 62.2395 39.2223C62.2395 39.9903 62.4742 40.5663 62.9435 40.9503C63.4342 41.3343 64.2235 41.6223 65.3115 41.8143L67.6475 42.2303C69.4609 42.5503 70.8582 43.233 71.8395 44.2783C72.8209 45.3237 73.3115 46.7317 73.3115 48.5023C73.3115 49.5477 73.1302 50.5183 72.7675 51.4143C72.4049 52.289 71.8609 53.057 71.1355 53.7183C70.4102 54.3583 69.5142 54.8597 68.4475 55.2223C67.4022 55.585 66.1755 55.7663 64.7675 55.7663ZM88.307 36.9823V55.3823H83.507V36.9823H77.075V33.0463H94.739V36.9823H88.307ZM111.015 55.3823L109.607 50.0063H103.495L102.119 55.3823H97.2545L103.303 33.0463H110.087L116.135 55.3823H111.015ZM106.695 37.6863H106.439L104.263 46.1343H108.871L106.695 37.6863ZM125.05 55.3823H120.314V33.0463H128.954C130.042 33.0463 131.013 33.217 131.866 33.5583C132.719 33.8783 133.434 34.3477 134.01 34.9663C134.607 35.585 135.055 36.3317 135.354 37.2063C135.653 38.081 135.802 39.0623 135.802 40.1503C135.802 41.729 135.461 43.0837 134.778 44.2143C134.095 45.345 133.125 46.0917 131.866 46.4543L136.25 55.3823H131.002L127.258 47.0943H125.05V55.3823ZM127.802 43.3823C128.933 43.3823 129.711 43.169 130.138 42.7423C130.586 42.3157 130.81 41.6117 130.81 40.6303V39.6703C130.81 38.689 130.586 37.985 130.138 37.5583C129.711 37.1317 128.933 36.9183 127.802 36.9183H125.05V43.3823H127.802ZM150.67 36.9823V55.3823H145.87V36.9823H139.438V33.0463H157.102V36.9823H150.67Z" fill="white"/>
<path d="M59.8715 54.8383L60.279 53.9251L59.8715 54.8383ZM56.5115 52.3103L55.7705 51.6388C55.4409 52.0025 55.424 52.5517 55.7307 52.935L56.5115 52.3103ZM59.2955 49.2383L60.0371 48.5674C59.8476 48.358 59.5784 48.2384 59.2959 48.2383C59.0135 48.2382 58.7442 48.3575 58.5545 48.5668L59.2955 49.2383ZM61.9515 51.2223L61.5454 52.1362L61.5528 52.1394L61.9515 51.2223ZM67.5515 51.0943L68.2023 51.8536L67.5515 51.0943ZM67.7435 47.0943L67.0726 47.8359C67.0783 47.841 67.0841 47.8461 67.0899 47.8511L67.7435 47.0943ZM65.4395 46.2303L65.2773 47.2171L65.2846 47.2182L65.4395 46.2303ZM63.1035 45.8463L62.9357 46.8322L62.9413 46.8331L63.1035 45.8463ZM58.7515 43.6383L57.9621 44.2523L57.9678 44.2594L58.7515 43.6383ZM59.5195 34.4543L60.1597 35.2226L60.1665 35.2168L59.5195 34.4543ZM69.9515 33.4623L70.3361 32.5392H70.3361L69.9515 33.4623ZM73.0555 35.6383L73.8008 36.3051C74.1355 35.931 74.141 35.3666 73.8135 34.9861L73.0555 35.6383ZM70.3355 38.6783L69.5934 39.3486C69.7836 39.5591 70.0542 39.679 70.3379 39.6783C70.6216 39.6777 70.8916 39.5565 71.0808 39.3451L70.3355 38.6783ZM68.2235 37.1423L67.7954 38.0461C67.802 38.0492 67.8086 38.0522 67.8152 38.0551L68.2235 37.1423ZM62.9435 40.9503L62.3103 41.7243C62.3159 41.7289 62.3215 41.7334 62.3272 41.7378L62.9435 40.9503ZM65.3115 41.8143L65.4869 40.8298L65.4853 40.8295L65.3115 41.8143ZM67.6475 42.2303L67.4722 43.2148L67.4737 43.2151L67.6475 42.2303ZM71.8395 44.2783L72.5686 43.5939L71.8395 44.2783ZM72.7675 51.4143L73.6913 51.7974L73.6945 51.7895L72.7675 51.4143ZM71.1355 53.7183L71.7972 54.4682C71.8012 54.4646 71.8053 54.4609 71.8093 54.4573L71.1355 53.7183ZM68.4475 55.2223L68.1256 54.2755L68.1198 54.2776L68.4475 55.2223ZM64.7675 54.7663C62.9983 54.7663 61.5109 54.4747 60.279 53.9251L59.4641 55.7516C61.0055 56.4393 62.7821 56.7663 64.7675 56.7663V54.7663ZM60.279 53.9251C59.0215 53.3641 58.0354 52.6143 57.2924 51.6856L55.7307 52.935C56.6944 54.1397 57.9482 55.0752 59.4641 55.7516L60.279 53.9251ZM57.2525 52.9818L60.0365 49.9098L58.5545 48.5668L55.7705 51.6388L57.2525 52.9818ZM58.554 49.9092C59.4443 50.8933 60.4401 51.6449 61.5454 52.1361L62.3577 50.3085C61.543 49.9464 60.7681 49.3754 60.0371 48.5674L58.554 49.9092ZM61.5528 52.1394C62.6514 52.617 63.7786 52.8623 64.9275 52.8623V50.8623C64.0711 50.8623 63.2144 50.681 62.3503 50.3053L61.5528 52.1394ZM64.9275 52.8623C66.2101 52.8623 67.3558 52.5792 68.2023 51.8536L66.9007 50.3351C66.5526 50.6334 65.949 50.8623 64.9275 50.8623V52.8623ZM68.2023 51.8536C69.0696 51.1102 69.4475 50.068 69.4475 48.8863H67.4475C67.4475 49.6246 67.2282 50.0544 66.9007 50.3351L68.2023 51.8536ZM69.4475 48.8863C69.4475 47.8916 69.1437 46.9822 68.3972 46.3375L67.0899 47.8511C67.2821 48.0171 67.4475 48.3023 67.4475 48.8863H69.4475ZM68.4144 46.3528C67.7457 45.7478 66.7384 45.4218 65.5945 45.2424L65.2846 47.2182C66.3167 47.3801 66.8453 47.6302 67.0726 47.8359L68.4144 46.3528ZM65.6017 45.2436L63.2657 44.8596L62.9413 46.8331L65.2773 47.2171L65.6017 45.2436ZM63.2713 44.8605C61.4099 44.5437 60.2252 43.8878 59.5353 43.0172L57.9678 44.2594C59.0699 45.6501 60.7865 46.4663 62.9357 46.8321L63.2713 44.8605ZM59.5409 43.0244C58.7984 42.0698 58.4075 40.896 58.4075 39.4463H56.4075C56.4075 41.282 56.9126 42.9028 57.9622 44.2523L59.5409 43.0244ZM58.4075 39.4463C58.4075 37.5306 59.0207 36.1717 60.1597 35.2225L58.8793 33.6861C57.2023 35.0836 56.4075 37.0527 56.4075 39.4463H58.4075ZM60.1665 35.2168C61.3361 34.2245 63.0492 33.6623 65.4395 33.6623V31.6623C62.7525 31.6623 60.519 32.2949 58.8726 33.6918L60.1665 35.2168ZM65.4395 33.6623C67.0669 33.6623 68.4348 33.9137 69.5669 34.3854L70.3361 32.5392C68.9083 31.9443 67.2681 31.6623 65.4395 31.6623V33.6623ZM69.5669 34.3854C70.7241 34.8676 71.6238 35.5075 72.2975 36.2906L73.8135 34.9861C72.9086 33.9344 71.739 33.1237 70.3361 32.5392L69.5669 34.3854ZM72.3103 34.9715L69.5903 38.0115L71.0808 39.3451L73.8008 36.3051L72.3103 34.9715ZM71.0776 38.008C70.3875 37.2439 69.5699 36.6491 68.6319 36.2295L67.8152 38.0551C68.4985 38.3608 69.0889 38.7901 69.5934 39.3486L71.0776 38.008ZM68.6516 36.2386C67.6894 35.7828 66.6226 35.5663 65.4715 35.5663V37.5663C66.3685 37.5663 67.1363 37.7339 67.7954 38.0461L68.6516 36.2386ZM65.4715 35.5663C64.2825 35.5663 63.205 35.8066 62.4126 36.4577C61.5827 37.1397 61.2395 38.1254 61.2395 39.2223H63.2395C63.2395 38.5486 63.435 38.2062 63.6824 38.0029C63.9674 37.7687 64.5059 37.5663 65.4715 37.5663V35.5663ZM61.2395 39.2223C61.2395 40.2034 61.549 41.1014 62.3103 41.7243L63.5768 40.1764C63.3994 40.0312 63.2395 39.7773 63.2395 39.2223H61.2395ZM62.3272 41.7378C63.0117 42.2735 63.9954 42.5975 65.1377 42.7991L65.4853 40.8295C64.4517 40.6471 63.8567 40.3951 63.5598 40.1628L62.3272 41.7378ZM65.1362 42.7988L67.4722 43.2148L67.8229 41.2458L65.4869 40.8298L65.1362 42.7988ZM67.4737 43.2151C69.1352 43.5083 70.3142 44.1146 71.1105 44.9628L72.5686 43.5939C71.4022 42.3514 69.7865 41.5923 67.8213 41.2455L67.4737 43.2151ZM71.1105 44.9628C71.8791 45.7815 72.3115 46.9232 72.3115 48.5023H74.3115C74.3115 46.5401 73.7627 44.8658 72.5686 43.5939L71.1105 44.9628ZM72.3115 48.5023C72.3115 49.4296 72.1512 50.2717 71.8406 51.0391L73.6945 51.7895C74.1092 50.7649 74.3115 49.6657 74.3115 48.5023H72.3115ZM71.8438 51.0313C71.5394 51.7654 71.0828 52.4132 70.4618 52.9794L71.8093 54.4573C72.639 53.7008 73.2703 52.8126 73.6913 51.7973L71.8438 51.0313ZM70.4739 52.9685C69.8626 53.5079 69.0875 53.9485 68.1256 54.2756L68.7694 56.1691C69.9409 55.7708 70.9578 55.2088 71.7972 54.4682L70.4739 52.9685ZM68.1198 54.2776C67.2041 54.5952 66.0929 54.7663 64.7675 54.7663V56.7663C66.2581 56.7663 67.6003 56.5747 68.7753 56.1671L68.1198 54.2776ZM88.307 36.9823V35.9823C87.7547 35.9823 87.307 36.43 87.307 36.9823H88.307ZM88.307 55.3823V56.3823C88.8593 56.3823 89.307 55.9346 89.307 55.3823H88.307ZM83.507 55.3823H82.507C82.507 55.9346 82.9547 56.3823 83.507 56.3823V55.3823ZM83.507 36.9823H84.507C84.507 36.43 84.0593 35.9823 83.507 35.9823V36.9823ZM77.075 36.9823H76.075C76.075 37.5346 76.5227 37.9823 77.075 37.9823V36.9823ZM77.075 33.0463V32.0463C76.5227 32.0463 76.075 32.494 76.075 33.0463H77.075ZM94.739 33.0463H95.739C95.739 32.494 95.2913 32.0463 94.739 32.0463V33.0463ZM94.739 36.9823V37.9823C95.2913 37.9823 95.739 37.5346 95.739 36.9823H94.739ZM87.307 36.9823V55.3823H89.307V36.9823H87.307ZM88.307 54.3823H83.507V56.3823H88.307V54.3823ZM84.507 55.3823V36.9823H82.507V55.3823H84.507ZM83.507 35.9823H77.075V37.9823H83.507V35.9823ZM78.075 36.9823V33.0463H76.075V36.9823H78.075ZM77.075 34.0463H94.739V32.0463H77.075V34.0463ZM93.739 33.0463V36.9823H95.739V33.0463H93.739ZM94.739 35.9823H88.307V37.9823H94.739V35.9823ZM111.015 55.3823L110.047 55.6357C110.162 56.0756 110.56 56.3823 111.015 56.3823V55.3823ZM109.607 50.0063L110.574 49.753C110.459 49.3131 110.061 49.0063 109.607 49.0063V50.0063ZM103.495 50.0063V49.0063C103.038 49.0063 102.639 49.3158 102.526 49.7584L103.495 50.0063ZM102.119 55.3823V56.3823C102.575 56.3823 102.974 56.0728 103.087 55.6303L102.119 55.3823ZM97.2545 55.3823L96.2893 55.121C96.2079 55.4215 96.2712 55.7428 96.4604 55.99C96.6496 56.2373 96.9432 56.3823 97.2545 56.3823V55.3823ZM103.303 33.0463V32.0463C102.851 32.0463 102.455 32.349 102.337 32.785L103.303 33.0463ZM110.087 33.0463L111.052 32.785C110.934 32.349 110.538 32.0463 110.087 32.0463V33.0463ZM116.135 55.3823V56.3823C116.446 56.3823 116.739 56.2373 116.929 55.99C117.118 55.7428 117.181 55.4215 117.1 55.121L116.135 55.3823ZM106.695 37.6863L107.663 37.4369C107.549 36.9951 107.151 36.6863 106.695 36.6863V37.6863ZM106.439 37.6863V36.6863C105.982 36.6863 105.584 36.9951 105.47 37.4369L106.439 37.6863ZM104.263 46.1343L103.294 45.8849C103.217 46.1843 103.283 46.5026 103.472 46.7469C103.662 46.9913 103.953 47.1343 104.263 47.1343V46.1343ZM108.871 46.1343V47.1343C109.18 47.1343 109.472 46.9913 109.661 46.7469C109.85 46.5026 109.916 46.1843 109.839 45.8849L108.871 46.1343ZM111.982 55.129L110.574 49.753L108.639 50.2597L110.047 55.6357L111.982 55.129ZM109.607 49.0063H103.495V51.0063H109.607V49.0063ZM102.526 49.7584L101.15 55.1344L103.087 55.6303L104.463 50.2543L102.526 49.7584ZM102.119 54.3823H97.2545V56.3823H102.119V54.3823ZM98.2198 55.6437L104.268 33.3077L102.337 32.785L96.2893 55.121L98.2198 55.6437ZM103.303 34.0463H110.087V32.0463H103.303V34.0463ZM109.121 33.3077L115.169 55.6437L117.1 55.121L111.052 32.785L109.121 33.3077ZM116.135 54.3823H111.015V56.3823H116.135V54.3823ZM106.695 36.6863H106.439V38.6863H106.695V36.6863ZM105.47 37.4369L103.294 45.8849L105.231 46.3838L107.407 37.9358L105.47 37.4369ZM104.263 47.1343H108.871V45.1343H104.263V47.1343ZM109.839 45.8849L107.663 37.4369L105.726 37.9358L107.902 46.3838L109.839 45.8849ZM125.05 55.3823V56.3823C125.602 56.3823 126.05 55.9346 126.05 55.3823H125.05ZM120.314 55.3823H119.314C119.314 55.9346 119.762 56.3823 120.314 56.3823V55.3823ZM120.314 33.0463V32.0463C119.762 32.0463 119.314 32.494 119.314 33.0463H120.314ZM131.866 33.5583L131.495 34.4868C131.501 34.4895 131.508 34.4921 131.515 34.4947L131.866 33.5583ZM134.01 34.9663L133.278 35.6477C133.282 35.6522 133.286 35.6566 133.291 35.6609L134.01 34.9663ZM134.778 44.2143L133.922 43.6975L134.778 44.2143ZM131.866 46.4543L131.589 45.4934C131.305 45.5753 131.071 45.7789 130.952 46.0494C130.832 46.3199 130.838 46.6295 130.968 46.8951L131.866 46.4543ZM136.25 55.3823V56.3823C136.595 56.3823 136.916 56.2042 137.099 55.9111C137.281 55.618 137.3 55.2515 137.148 54.9416L136.25 55.3823ZM131.002 55.3823L130.091 55.794C130.252 56.1521 130.609 56.3823 131.002 56.3823V55.3823ZM127.258 47.0943L128.169 46.6826C128.008 46.3245 127.651 46.0943 127.258 46.0943V47.0943ZM125.05 47.0943V46.0943C124.498 46.0943 124.05 46.542 124.05 47.0943H125.05ZM130.138 42.7423L129.448 42.0182C129.442 42.0238 129.437 42.0295 129.431 42.0352L130.138 42.7423ZM130.138 37.5583L129.431 38.2654C129.437 38.2712 129.442 38.2769 129.448 38.2825L130.138 37.5583ZM125.05 36.9183V35.9183C124.498 35.9183 124.05 36.366 124.05 36.9183H125.05ZM125.05 43.3823H124.05C124.05 43.9346 124.498 44.3823 125.05 44.3823V43.3823ZM125.05 54.3823H120.314V56.3823H125.05V54.3823ZM121.314 55.3823V33.0463H119.314V55.3823H121.314ZM120.314 34.0463H128.954V32.0463H120.314V34.0463ZM128.954 34.0463C129.938 34.0463 130.779 34.2005 131.495 34.4868L132.237 32.6298C131.246 32.2334 130.146 32.0463 128.954 32.0463V34.0463ZM131.515 34.4947C132.235 34.7646 132.816 35.1511 133.278 35.6477L134.742 34.2849C134.052 33.5442 133.204 32.992 132.217 32.622L131.515 34.4947ZM133.291 35.6609C133.778 36.1662 134.153 36.7832 134.408 37.5295L136.3 36.8832C135.958 35.8801 135.436 35.0038 134.729 34.2717L133.291 35.6609ZM134.408 37.5295C134.665 38.2835 134.802 39.1533 134.802 40.1503H136.802C136.802 38.9714 136.64 37.8785 136.3 36.8832L134.408 37.5295ZM134.802 40.1503C134.802 41.5826 134.494 42.7508 133.922 43.6975L135.634 44.7312C136.428 43.4165 136.802 41.8754 136.802 40.1503H134.802ZM133.922 43.6975C133.368 44.6144 132.603 45.2012 131.589 45.4934L132.143 47.4152C133.646 46.9822 134.822 46.0756 135.634 44.7312L133.922 43.6975ZM130.968 46.8951L135.352 55.8231L137.148 54.9416L132.764 46.0136L130.968 46.8951ZM136.25 54.3823H131.002V56.3823H136.25V54.3823ZM131.913 54.9706L128.169 46.6826L126.347 47.506L130.091 55.794L131.913 54.9706ZM127.258 46.0943H125.05V48.0943H127.258V46.0943ZM124.05 47.0943V55.3823H126.05V47.0943H124.05ZM127.802 44.3823C128.99 44.3823 130.123 44.1718 130.845 43.4494L129.431 42.0352C129.3 42.1661 128.875 42.3823 127.802 42.3823V44.3823ZM130.828 43.4665C131.564 42.7653 131.81 41.7292 131.81 40.6303H129.81C129.81 41.4941 129.608 41.8661 129.448 42.0182L130.828 43.4665ZM131.81 40.6303V39.6703H129.81V40.6303H131.81ZM131.81 39.6703C131.81 38.5714 131.564 37.5354 130.828 36.8342L129.448 38.2825C129.608 38.4346 129.81 38.8066 129.81 39.6703H131.81ZM130.845 36.8512C130.123 36.1288 128.99 35.9183 127.802 35.9183V37.9183C128.875 37.9183 129.3 38.1345 129.431 38.2654L130.845 36.8512ZM127.802 35.9183H125.05V37.9183H127.802V35.9183ZM124.05 36.9183V43.3823H126.05V36.9183H124.05ZM125.05 44.3823H127.802V42.3823H125.05V44.3823ZM150.67 36.9823V35.9823C150.117 35.9823 149.67 36.43 149.67 36.9823H150.67ZM150.67 55.3823V56.3823C151.222 56.3823 151.67 55.9346 151.67 55.3823H150.67ZM145.87 55.3823H144.87C144.87 55.9346 145.317 56.3823 145.87 56.3823V55.3823ZM145.87 36.9823H146.87C146.87 36.43 146.422 35.9823 145.87 35.9823V36.9823ZM139.438 36.9823H138.438C138.438 37.5346 138.885 37.9823 139.438 37.9823V36.9823ZM139.438 33.0463V32.0463C138.885 32.0463 138.438 32.494 138.438 33.0463H139.438ZM157.102 33.0463H158.102C158.102 32.494 157.654 32.0463 157.102 32.0463V33.0463ZM157.102 36.9823V37.9823C157.654 37.9823 158.102 37.5346 158.102 36.9823H157.102ZM149.67 36.9823V55.3823H151.67V36.9823H149.67ZM150.67 54.3823H145.87V56.3823H150.67V54.3823ZM146.87 55.3823V36.9823H144.87V55.3823H146.87ZM145.87 35.9823H139.438V37.9823H145.87V35.9823ZM140.438 36.9823V33.0463H138.438V36.9823H140.438ZM139.438 34.0463H157.102V32.0463H139.438V34.0463ZM156.102 33.0463V36.9823H158.102V33.0463H156.102ZM157.102 35.9823H150.67V37.9823H157.102V35.9823Z" fill="#58942D"/>
</g>
</g>
<g filter="url(#filter3_f_1303_2167)">
<ellipse rx="8.87456" ry="2.63848" transform="matrix(0.995427 -0.0955249 0.190576 0.981672 30.9247 17.4145)" fill="#F9E530"/>
</g>
<g filter="url(#filter4_f_1303_2167)">
<ellipse rx="8.87456" ry="2.63848" transform="matrix(0.995427 -0.0955249 0.190576 0.981672 27.9247 15.4145)" fill="#F9E530"/>
</g>
<g filter="url(#filter5_f_1303_2167)">
<ellipse rx="8.87456" ry="2.63848" transform="matrix(0.995427 -0.0955249 0.190576 0.981672 24.9247 16.4145)" fill="#F9E530"/>
</g>
<g filter="url(#filter6_f_1303_2167)">
<ellipse rx="8.87456" ry="3.20275" transform="matrix(0.999702 -0.0244109 0.1202 0.99275 166.024 71.4861)" fill="#F9E530"/>
</g>
<ellipse rx="2.91188" ry="0.744681" transform="matrix(0.999987 0.00507906 -0.0122235 0.999925 166.961 73.6886)" fill="white"/>
<g filter="url(#filter7_f_1303_2167)">
<ellipse rx="8.87456" ry="4.60491" transform="matrix(0.995427 -0.0955249 0.190576 0.981672 27.7311 17.1571)" fill="white"/>
</g>
<ellipse rx="3.18585" ry="1.25884" transform="matrix(0.995427 -0.0955249 0.190576 0.981672 26.9581 15.1495)" fill="white"/>
<g filter="url(#filter8_f_1303_2167)">
<path d="M131.52 73.7888H182.02" stroke="#FFF505" stroke-width="0.6" stroke-linecap="round" stroke-linejoin="round"/>
</g>
<defs>
<filter id="filter0_dd_1303_2167" x="0.0195312" y="12.8823" width="214" height="74" filterUnits="userSpaceOnUse" color-interpolation-filters="sRGB">
<feFlood flood-opacity="0" result="BackgroundImageFix"/>
<feColorMatrix in="SourceAlpha" type="matrix" values="0 0 0 0 0 0 0 0 0 0 0 0 0 0 0 0 0 0 127 0" result="hardAlpha"/>
<feOffset dy="3"/>
<feGaussianBlur stdDeviation="0.5"/>
<feColorMatrix type="matrix" values="0 0 0 0 0.92549 0 0 0 0 0.894118 0 0 0 0 0.815686 0 0 0 1 0"/>
<feBlend mode="normal" in2="BackgroundImageFix" result="effect1_dropShadow_1303_2167"/>
<feColorMatrix in="SourceAlpha" type="matrix" values="0 0 0 0 0 0 0 0 0 0 0 0 0 0 0 0 0 0 127 0" result="hardAlpha"/>
<feOffset dy="1"/>
<feGaussianBlur stdDeviation="0.5"/>
<feColorMatrix type="matrix" values="0 0 0 0 0.128597 0 0 0 0 0.104621 0 0 0 0 0.104621 0 0 0 0.4 0"/>
<feBlend mode="normal" in2="effect1_dropShadow_1303_2167" result="effect2_dropShadow_1303_2167"/>
<feBlend mode="normal" in="SourceGraphic" in2="effect2_dropShadow_1303_2167" result="shape"/>
</filter>
<filter id="filter1_f_1303_2167" x="142.373" y="55.0339" width="50.4521" height="30.6338" filterUnits="userSpaceOnUse" color-interpolation-filters="sRGB">
<feFlood flood-opacity="0" result="BackgroundImageFix"/>
<feBlend mode="normal" in="SourceGraphic" in2="BackgroundImageFix" result="shape"/>
<feGaussianBlur stdDeviation="6" result="effect1_foregroundBlur_1303_2167"/>
</filter>
<filter id="filter2_d_1303_2167" x="55.5117" y="32.6624" width="102.59" height="25.104" filterUnits="userSpaceOnUse" color-interpolation-filters="sRGB">
<feFlood flood-opacity="0" result="BackgroundImageFix"/>
<feColorMatrix in="SourceAlpha" type="matrix" values="0 0 0 0 0 0 0 0 0 0 0 0 0 0 0 0 0 0 127 0" result="hardAlpha"/>
<feOffset dy="1"/>
<feGaussianBlur stdDeviation="0.5"/>
<feColorMatrix type="matrix" values="0 0 0 0 0.3744 0 0 0 0 0.632764 0 0 0 0 0.150951 0 0 0 1 0"/>
<feBlend mode="normal" in2="BackgroundImageFix" result="effect1_dropShadow_1303_2167"/>
<feBlend mode="normal" in="SourceGraphic" in2="effect1_dropShadow_1303_2167" result="shape"/>
</filter>
<filter id="filter3_f_1303_2167" x="10.0762" y="2.68848" width="41.6973" height="29.4521" filterUnits="userSpaceOnUse" color-interpolation-filters="sRGB">
<feFlood flood-opacity="0" result="BackgroundImageFix"/>
<feBlend mode="normal" in="SourceGraphic" in2="BackgroundImageFix" result="shape"/>
<feGaussianBlur stdDeviation="6" result="effect1_foregroundBlur_1303_2167"/>
</filter>
<filter id="filter4_f_1303_2167" x="7.07617" y="0.688477" width="41.6973" height="29.4521" filterUnits="userSpaceOnUse" color-interpolation-filters="sRGB">
<feFlood flood-opacity="0" result="BackgroundImageFix"/>
<feBlend mode="normal" in="SourceGraphic" in2="BackgroundImageFix" result="shape"/>
<feGaussianBlur stdDeviation="6" result="effect1_foregroundBlur_1303_2167"/>
</filter>
<filter id="filter5_f_1303_2167" x="4.07617" y="1.68848" width="41.6973" height="29.4521" filterUnits="userSpaceOnUse" color-interpolation-filters="sRGB">
<feFlood flood-opacity="0" result="BackgroundImageFix"/>
<feBlend mode="normal" in="SourceGraphic" in2="BackgroundImageFix" result="shape"/>
<feGaussianBlur stdDeviation="6" result="effect1_foregroundBlur_1303_2167"/>
</filter>
<filter id="filter6_f_1303_2167" x="145.145" y="56.2991" width="41.7607" height="30.374" filterUnits="userSpaceOnUse" color-interpolation-filters="sRGB">
<feFlood flood-opacity="0" result="BackgroundImageFix"/>
<feBlend mode="normal" in="SourceGraphic" in2="BackgroundImageFix" result="shape"/>
<feGaussianBlur stdDeviation="6" result="effect1_foregroundBlur_1303_2167"/>
</filter>
<filter id="filter7_f_1303_2167" x="6.85254" y="0.556885" width="41.7568" height="33.2004" filterUnits="userSpaceOnUse" color-interpolation-filters="sRGB">
<feFlood flood-opacity="0" result="BackgroundImageFix"/>
<feBlend mode="normal" in="SourceGraphic" in2="BackgroundImageFix" result="shape"/>
<feGaussianBlur stdDeviation="6" result="effect1_foregroundBlur_1303_2167"/>
</filter>
<filter id="filter8_f_1303_2167" x="130.22" y="72.4888" width="53.0996" height="2.6001" filterUnits="userSpaceOnUse" color-interpolation-filters="sRGB">
<feFlood flood-opacity="0" result="BackgroundImageFix"/>
<feBlend mode="normal" in="SourceGraphic" in2="BackgroundImageFix" result="shape"/>
<feGaussianBlur stdDeviation="0.5" result="effect1_foregroundBlur_1303_2167"/>
</filter>
<linearGradient id="paint0_linear_1303_2167" x1="197.877" y1="74.3823" x2="18.4927" y2="75.0607" gradientUnits="userSpaceOnUse">
<stop stop-color="#6FA835"/>
<stop offset="0.514303" stop-color="#7CB435"/>
<stop offset="1" stop-color="#538D2B"/>
</linearGradient>
<linearGradient id="paint1_linear_1303_2167" x1="107.02" y1="12.8823" x2="107.02" y2="73.8823" gradientUnits="userSpaceOnUse">
<stop stop-color="#BBF341"/>
<stop offset="1" stop-color="#90DE0B"/>
</linearGradient>
<linearGradient id="paint2_linear_1303_2167" x1="104.69" y1="38.3823" x2="106.407" y2="101.899" gradientUnits="userSpaceOnUse">
<stop stop-color="#74BE39"/>
<stop offset="1" stop-color="#74BE39" stop-opacity="0"/>
</linearGradient>
<linearGradient id="paint3_linear_1303_2167" x1="127.404" y1="63.8823" x2="112.179" y2="-13.1376" gradientUnits="userSpaceOnUse">
<stop stop-color="#90D447"/>
<stop offset="1" stop-color="#EEFF2D"/>
</linearGradient>
<linearGradient id="paint4_linear_1303_2167" x1="120.998" y1="62.3823" x2="122.288" y2="80.415" gradientUnits="userSpaceOnUse">
<stop stop-color="#90D447" stop-opacity="0"/>
<stop offset="1" stop-color="#EBFF00"/>
</linearGradient>
</defs>
</svg>
