<svg width="1005" height="355" viewBox="0 0 1005 355" fill="none" xmlns="http://www.w3.org/2000/svg">
<g clip-path="url(#clip0_1244_2215)">
<path opacity="0.4" d="M-158.388 152.098L995.311 -27.7112L999.691 -2.3066L-154.009 177.503L-158.388 152.098Z" fill="#212121"/>
<path d="M-159.666 149.004L994.033 -30.8048L998.412 -5.40026L-155.287 174.41L-159.666 149.004Z" fill="#FEF100"/>
<path d="M-159.666 149.004L994.033 -30.8048L998.412 -5.40025L-155.287 174.41L-159.666 149.004Z" stroke="#0C0C0C" stroke-width="4" stroke-miterlimit="10"/>
<path d="M253.151 98.3847C253.909 102.791 251.747 105.913 247.637 106.555C243.515 107.196 240.426 104.894 239.667 100.487C238.909 96.0813 241.059 92.9577 245.181 92.3172C249.291 91.6746 252.392 93.9786 253.151 98.3847ZM242.53 100.039C243.023 102.908 244.807 104.198 247.164 103.832C249.516 103.467 250.769 101.701 250.276 98.8314C249.783 95.9621 247.999 94.672 245.649 95.0422C243.292 95.4087 242.034 97.1763 242.53 100.039Z" fill="#212121"/>
<path d="M265.776 89.4298L267.291 98.2018C267.826 101.304 266.045 103.686 262.507 104.243C258.962 104.796 256.478 103.076 255.943 99.9747L254.428 91.2027L257.254 90.7601L258.737 99.349C259.02 100.991 260.215 101.799 262.032 101.514C263.849 101.229 264.709 100.1 264.428 98.4629L262.945 89.874L265.771 89.4314L265.776 89.4298Z" fill="#212121"/>
<path d="M267.609 89.1452L279.931 87.2261L280.415 90.0164L275.681 90.7558L277.544 101.577L274.707 102.017L272.843 91.1964L268.098 91.9338L267.614 89.1436L267.609 89.1452Z" fill="#212121"/>
<path d="M288.141 85.9442C290.926 85.5094 292.652 86.5368 293.031 88.7285C293.263 90.0769 292.864 91.2609 291.767 91.9685C293.253 92.2363 294.118 93.1743 294.38 94.683C294.801 97.1246 293.289 99.121 290.648 99.533L284.203 100.541L281.856 86.9296L288.138 85.9512L288.141 85.9442ZM286.566 97.3716L290.052 96.8259C291.13 96.6578 291.656 95.9011 291.492 94.9347C291.322 93.9472 290.561 93.45 289.495 93.6202L286.013 94.1642L286.566 97.3716ZM285.624 91.9056L288.985 91.3832C289.967 91.2285 290.449 90.6092 290.305 89.7713C290.152 88.8893 289.451 88.5426 288.573 88.6754L285.155 89.2104L285.619 91.9073L285.624 91.9056Z" fill="#212121"/>
<path d="M302.29 83.7369C305.047 83.3049 306.911 85.0614 307.324 87.4643C307.654 89.3848 306.963 91.2435 305.427 92.2226L308.799 96.6945L305.566 97.199L302.467 93.0546L299.783 93.4744L300.559 97.9862L297.733 98.4288L295.386 84.8176L302.302 83.7389L302.29 83.7369ZM299.305 90.7526L302.823 90.2025C304.007 90.0176 304.691 89.1509 304.499 88.0296C304.309 86.9311 303.423 86.4221 302.35 86.5886L298.689 87.1615L299.31 90.751L299.305 90.7526Z" fill="#212121"/>
<path d="M312.602 84.9957L313.019 87.4267L319.301 86.4482L319.785 89.2385L313.503 90.2169L313.987 93.0247L320.819 91.9615L321.303 94.7518L311.639 96.2592L309.292 82.648L318.955 81.1406L319.439 83.9309L312.607 84.994L312.602 84.9957ZM325.575 80.1055L329.279 79.5302L336.814 92.3306L333.76 92.8062L332.198 90.0965L326.37 91.0037L325.798 94.0486L322.744 94.5242L325.575 80.1055ZM330.705 87.4638L327.907 82.6063L326.89 88.0575L330.705 87.4638Z" fill="#212121"/>
<path d="M344.311 82.6961L350.901 90.1374L347.483 90.6725L342.712 85.0899L341.018 87.4973L341.718 91.5707L338.892 92.0134L336.545 78.4022L339.371 77.9596L340.37 83.7407L344.649 77.137L348.491 76.5405L344.301 82.6993L344.311 82.6961Z" fill="#212121"/>
<path d="M358.006 75.0522L360.353 88.6634L357.527 89.106L355.18 75.4948L358.006 75.0522Z" fill="#212121"/>
<path d="M375.726 72.2891L378.073 85.9003L375.309 86.3286L373.645 76.6853L372.298 85.8236L369.064 86.3281L364.711 78.0791L366.375 87.7224L363.618 88.1545L361.271 74.5433L365.402 73.8995L370.133 82.8817L371.589 72.9345L375.726 72.2891ZM393.447 69.5259L395.794 83.137L393.03 83.5654L391.366 73.9221L390.019 83.0604L386.785 83.5649L382.432 75.3159L384.096 84.9592L381.339 85.3913L378.992 71.7801L383.123 71.1363L387.854 80.1185L389.31 70.1713L393.447 69.5259Z" fill="#212121"/>
<path d="M399.54 68.5795L401.887 82.1907L399.061 82.6334L396.714 69.0222L399.54 68.5795Z" fill="#212121"/>
<path d="M414.461 66.2508L416.808 79.862L413.638 80.3575L406.426 72.2804L407.969 81.2424L405.143 81.685L402.796 68.0738L405.966 67.5783L413.192 75.7329L411.635 66.6934L414.461 66.2508Z" fill="#212121"/>
<path d="M421.033 68.0964L421.45 70.5274L427.732 69.5489L428.216 72.3392L421.933 73.3176L422.417 76.1254L429.25 75.0622L429.733 77.8525L420.07 79.3599L417.723 65.7487L427.386 64.2413L427.87 67.0316L421.038 68.0947L421.033 68.0964Z" fill="#212121"/>
<path d="M441.672 62.0128L444.019 75.6239L440.849 76.1195L433.637 68.0423L435.18 77.0043L432.354 77.447L430.007 63.8358L433.177 63.3402L440.403 71.4948L438.846 62.4554L441.672 62.0128Z" fill="#212121"/>
<path d="M443.594 61.711L455.916 59.7919L456.4 62.5822L451.666 63.3216L453.53 74.1426L450.692 74.5831L448.829 63.7622L444.083 64.4996L443.599 61.7094L443.594 61.711Z" fill="#212121"/>
<path d="M514.017 57.7218C514.775 62.128 512.613 65.2496 508.503 65.8921C504.382 66.5326 501.292 64.2307 500.534 59.8245C499.775 55.4183 501.925 52.2947 506.047 51.6542C510.157 51.0117 513.259 53.3156 514.017 57.7218ZM503.397 59.3758C503.889 62.2452 505.673 63.5352 508.03 63.1687C510.382 62.8039 511.635 61.0378 511.142 58.1685C510.65 55.2991 508.865 54.0091 506.515 54.3792C504.159 54.7457 502.9 56.5134 503.397 59.3758Z" fill="#212121"/>
<path d="M526.642 48.7668L528.157 57.5388C528.692 60.6406 526.912 63.023 523.373 63.5797C519.828 64.1326 517.344 62.4135 516.809 59.3117L515.294 50.5397L518.12 50.0971L519.603 58.686C519.887 60.3284 521.081 61.136 522.898 60.851C524.715 60.5659 525.576 59.4371 525.294 57.8L523.811 49.2111L526.637 48.7685L526.642 48.7668Z" fill="#212121"/>
<path d="M528.476 48.4822L540.798 46.5632L541.282 49.3534L536.548 50.0929L538.412 60.9138L535.574 61.3544L533.71 50.5334L528.965 51.2709L528.481 48.4806L528.476 48.4822Z" fill="#212121"/>
<path d="M549.008 45.2813C551.792 44.8464 553.518 45.8738 553.897 48.0655C554.129 49.414 553.731 50.5979 552.634 51.3055C554.119 51.5733 554.984 52.5113 555.246 54.02C555.667 56.4616 554.156 58.458 551.514 58.8701L545.069 59.8779L542.722 46.2667L549.004 45.2882L549.008 45.2813ZM547.432 56.7086L550.918 56.163C551.996 55.9948 552.522 55.2381 552.358 54.2718C552.188 53.2842 551.427 52.787 550.361 52.9572L546.879 53.5012L547.432 56.7086ZM546.491 51.2427L549.851 50.7203C550.834 50.5655 551.315 49.9463 551.171 49.1083C551.018 48.2264 550.317 47.8797 549.439 48.0124L546.021 48.5474L546.486 51.2443L546.491 51.2427Z" fill="#212121"/>
<path d="M563.157 43.0738C565.915 42.6418 567.778 44.3983 568.192 46.8012C568.521 48.7217 567.831 50.5804 566.294 51.5595L569.666 56.0314L566.433 56.5359L563.334 52.3915L560.65 52.8113L561.426 57.3231L558.6 57.7657L556.253 44.1545L563.169 43.0758L563.157 43.0738ZM560.172 50.0895L563.69 49.5394C564.874 49.3546 565.558 48.4878 565.367 47.3665C565.177 46.268 564.29 45.759 563.217 45.9255L559.556 46.4985L560.177 50.0879L560.172 50.0895Z" fill="#212121"/>
<path d="M573.468 44.3327L573.885 46.7637L580.168 45.7852L580.651 48.5755L574.369 49.554L574.853 52.3617L581.685 51.2986L582.169 54.0888L572.505 55.5962L570.158 41.9851L579.822 40.4776L580.305 43.2679L573.473 44.3311L573.468 44.3327ZM586.441 39.4426L590.145 38.8672L597.68 51.6677L594.626 52.1433L593.064 49.4335L587.236 50.3407L586.664 53.3856L583.61 53.8612L586.441 39.4426ZM591.571 46.8008L588.774 41.9433L587.756 47.3945L591.571 46.8008Z" fill="#212121"/>
<path d="M605.178 42.0331L611.768 49.4744L608.35 50.0095L603.579 44.427L601.885 46.8343L602.585 50.9078L599.759 51.3504L597.412 37.7392L600.238 37.2966L601.238 43.0777L605.517 36.4741L609.359 35.8775L605.168 42.0364L605.178 42.0331Z" fill="#212121"/>
<path d="M618.877 34.3877L621.224 47.9988L618.398 48.4415L616.051 34.8303L618.877 34.3877Z" fill="#212121"/>
<path d="M636.593 31.6261L638.941 45.2373L636.176 45.6656L634.512 36.0223L633.165 45.1606L629.932 45.6652L625.578 37.4161L627.242 47.0595L624.485 47.4915L622.138 33.8803L626.27 33.2365L631 42.2188L632.457 32.2715L636.593 31.6261ZM654.314 28.8629L656.661 42.4741L653.897 42.9024L652.233 33.2591L650.886 42.3974L647.652 42.902L643.299 34.6529L644.963 44.2963L642.206 44.7283L639.859 31.1171L643.991 30.4734L648.721 39.4556L650.177 29.5083L654.314 28.8629Z" fill="#212121"/>
<path d="M660.407 27.9166L662.754 41.5278L659.928 41.9704L657.581 28.3592L660.407 27.9166Z" fill="#212121"/>
<path d="M675.332 25.5861L677.679 39.1973L674.509 39.6929L667.297 31.6157L668.84 40.5777L666.014 41.0203L663.667 27.4091L666.837 26.9136L674.063 35.0682L672.506 26.0288L675.332 25.5861Z" fill="#212121"/>
<path d="M681.904 27.4318L682.321 29.8628L688.603 28.8844L689.087 31.6746L682.805 32.6531L683.288 35.4609L690.121 34.3977L690.604 37.1879L680.941 38.6954L678.594 25.0842L688.257 23.5768L688.741 26.367L681.909 27.4302L681.904 27.4318Z" fill="#212121"/>
<path d="M702.539 21.3498L704.886 34.961L701.716 35.4565L694.504 27.3794L696.047 36.3414L693.221 36.784L690.874 23.1728L694.044 22.6773L701.27 30.8319L699.713 21.7924L702.539 21.3498Z" fill="#212121"/>
<path d="M704.462 21.048L716.783 19.129L717.267 21.9192L712.534 22.6587L714.397 33.4796L711.559 33.9202L709.696 23.0992L704.95 23.8367L704.467 21.0464L704.462 21.048Z" fill="#212121"/>
<path d="M770.44 17.751C771.198 22.1571 769.036 25.2787 764.926 25.9213C760.804 26.5618 757.715 24.2599 756.956 19.8537C756.198 15.4475 758.348 12.3239 762.47 11.6834C766.58 11.0408 769.681 13.3448 770.44 17.751ZM759.819 19.405C760.312 22.2743 762.096 23.5644 764.453 23.1979C766.805 22.8331 768.058 21.067 767.565 18.1976C767.072 15.3283 765.288 14.0383 762.938 14.4084C760.581 14.7749 759.323 16.5426 759.819 19.405Z" fill="#212121"/>
<path d="M783.065 8.796L784.58 17.568C785.115 20.6698 783.334 23.0522 779.796 23.6088C776.251 24.1618 773.767 22.4427 773.232 19.3409L771.717 10.5689L774.543 10.1263L776.026 18.7152C776.31 20.3576 777.504 21.1652 779.321 20.8802C781.138 20.5951 781.999 19.4663 781.717 17.8291L780.234 9.24025L783.06 8.79763L783.065 8.796Z" fill="#212121"/>
<path d="M784.899 8.51142L797.221 6.59233L797.705 9.38258L792.971 10.122L794.834 20.943L791.997 21.3836L790.133 10.5626L785.388 11.3001L784.904 8.50979L784.899 8.51142Z" fill="#212121"/>
<path d="M805.43 5.31057C808.215 4.87568 809.941 5.90314 810.32 8.09481C810.552 9.44325 810.153 10.6272 809.056 11.3348C810.542 11.6026 811.407 12.5406 811.669 14.0493C812.09 16.4909 810.578 18.4873 807.937 18.8994L801.492 19.9072L799.145 6.29598L805.427 5.3175L805.43 5.31057ZM803.855 16.7379L807.341 16.1923C808.419 16.0241 808.945 15.2674 808.781 14.3011C808.611 13.3135 807.85 12.8163 806.784 12.9865L803.302 13.5305L803.855 16.7379ZM802.913 11.272L806.274 10.7496C807.256 10.5948 807.738 9.97557 807.594 9.13764C807.441 8.25567 806.74 7.90895 805.862 8.04169L802.444 8.57674L802.908 11.2736L802.913 11.272Z" fill="#212121"/>
<path d="M819.58 3.10311C822.338 2.67108 824.201 4.42759 824.614 6.83047C824.944 8.75098 824.254 10.6097 822.717 11.5888L826.089 16.0607L822.856 16.5652L819.757 12.4208L817.073 12.8406L817.849 17.3524L815.023 17.795L812.676 4.1838L819.592 3.10514L819.58 3.10311ZM816.595 10.1188L820.113 9.56872C821.297 9.38385 821.981 8.51714 821.789 7.39582C821.599 6.29734 820.713 5.78829 819.64 5.95484L815.979 6.52775L816.6 10.1172L816.595 10.1188Z" fill="#212121"/>
<path d="M829.891 4.36186L830.308 6.79288L836.591 5.8144L837.074 8.60465L830.792 9.58314L831.276 12.3909L838.108 11.3277L838.592 14.118L828.928 15.6254L826.581 2.01422L836.245 0.506811L836.728 3.29706L829.896 4.36022L829.891 4.36186ZM842.864 -0.528267L846.568 -1.10364L854.103 11.6968L851.049 12.1724L849.487 9.46268L843.659 10.3699L843.087 13.4148L840.033 13.8904L842.864 -0.528267ZM847.994 6.83001L845.196 1.97247L844.179 7.42371L847.994 6.83001Z" fill="#212121"/>
<path d="M861.601 2.06239L868.191 9.50374L864.773 10.0388L860.002 4.45628L858.308 6.86362L859.008 10.9371L856.182 11.3797L853.835 -2.2315L856.661 -2.67411L857.66 3.107L861.94 -3.49664L865.781 -4.09317L861.591 2.06565L861.601 2.06239Z" fill="#212121"/>
<path d="M875.3 -5.58305L877.647 8.02813L874.821 8.47075L872.474 -5.14042L875.3 -5.58305Z" fill="#212121"/>
<path d="M893.016 -8.34474L895.363 5.26644L892.599 5.69482L890.935 -3.94853L889.588 5.18982L886.354 5.69434L882.001 -2.55473L883.665 7.08862L880.908 7.52068L878.561 -6.09051L882.693 -6.73429L887.423 2.24794L888.879 -7.69931L893.016 -8.34474ZM910.737 -11.1079L913.084 2.50325L910.32 2.93161L908.656 -6.71173L907.309 2.42661L904.075 2.93113L899.722 -5.31791L901.386 4.32543L898.629 4.75746L896.282 -8.85372L900.413 -9.4975L905.144 -0.515269L906.6 -10.4625L910.737 -11.1079Z" fill="#212121"/>
<path d="M916.83 -12.0542L919.177 1.55694L916.351 1.99956L914.004 -11.6116L916.83 -12.0542Z" fill="#212121"/>
<path d="M931.755 -14.3846L934.102 -0.773389L930.932 -0.277837L923.72 -8.35501L925.263 0.606995L922.437 1.04961L920.09 -12.5616L923.26 -13.0571L930.486 -4.90249L928.929 -13.9419L931.755 -14.3846Z" fill="#212121"/>
<path d="M938.327 -12.539L938.744 -10.108L945.026 -11.0865L945.51 -8.29623L939.227 -7.31776L939.711 -4.50998L946.543 -5.57314L947.027 -2.78289L937.364 -1.27546L935.017 -14.8866L944.68 -16.3941L945.164 -13.6038L938.332 -12.5407L938.327 -12.539Z" fill="#212121"/>
<path d="M2.56096 137.447C3.31936 141.853 1.15738 144.974 -2.95266 145.617C-7.07448 146.257 -10.1641 143.956 -10.9225 139.549C-11.6809 135.143 -9.53069 132.02 -5.40887 131.379C-1.29883 130.737 1.80255 133.04 2.56096 137.447ZM-8.05953 139.101C-7.56677 141.97 -5.78256 143.26 -3.4258 142.894C-1.07407 142.529 0.179001 140.763 -0.313753 137.893C-0.806507 135.024 -2.59075 133.734 -4.94076 134.104C-7.29752 134.471 -8.55558 136.238 -8.05953 139.101Z" fill="#212121"/>
<path d="M15.1907 128.49L16.7055 137.262C17.2404 140.364 15.4602 142.746 11.92 143.298C8.37486 143.851 5.89073 142.131 5.35585 139.03L3.84105 130.258L6.66711 129.815L8.15026 138.404C8.43354 140.046 9.62818 140.854 11.4452 140.569C13.2622 140.284 14.1225 139.155 13.841 137.518L12.3579 128.929L15.1839 128.486L15.1907 128.49Z" fill="#212121"/>
<path d="M17.0192 128.207L29.341 126.288L29.8248 129.078L25.0912 129.818L26.9546 140.639L24.1168 141.079L22.2534 130.258L17.508 130.996L17.0242 128.205L17.0192 128.207Z" fill="#212121"/>
<path d="M37.5511 125.006C40.3353 124.571 42.062 125.599 42.4403 127.79C42.6726 129.139 42.2742 130.323 41.1822 131.029C42.6679 131.297 43.533 132.234 43.7951 133.743C44.2156 136.185 42.7042 138.181 40.0625 138.593L33.6158 139.596L31.2687 125.985L37.5511 125.006ZM35.9755 136.433L39.462 135.888C40.5398 135.72 41.0658 134.963 40.902 133.997C40.7314 133.009 39.9705 132.512 38.9045 132.682L35.423 133.226L35.9755 136.433ZM35.0341 130.968L38.3949 130.445C39.3772 130.29 39.859 129.671 39.7147 128.833C39.5616 127.951 38.8607 127.604 37.9874 127.736L34.5696 128.271L35.0341 130.968Z" fill="#212121"/>
<path d="M51.7003 122.799C54.4576 122.367 56.3211 124.123 56.7346 126.526C57.0637 128.447 56.3736 130.305 54.8374 131.284L58.2094 135.756L54.976 136.261L51.8768 132.116L49.1932 132.536L49.9692 137.048L47.1432 137.491L44.796 123.879L51.7121 122.801L51.7003 122.799ZM48.7151 129.815L52.2334 129.264C53.4168 129.08 54.1014 128.213 53.9095 127.092C53.7195 125.993 52.8327 125.484 51.7599 125.651L48.0991 126.223L48.7201 129.813L48.7151 129.815Z" fill="#212121"/>
<path d="M62.0121 124.058L62.4292 126.489L68.7116 125.51L69.1954 128.3L62.9129 129.279L63.3968 132.087L70.229 131.023L70.7128 133.814L61.0494 135.321L58.7023 121.71L68.3656 120.202L68.8493 122.993L62.0171 124.056L62.0121 124.058ZM74.9849 119.167L78.6894 118.592L86.2261 131.398L83.172 131.873L81.6098 129.164L75.7816 130.071L75.2101 133.116L72.156 133.591L74.9867 119.173L74.9849 119.167ZM80.1153 126.526L77.3175 121.668L76.3002 127.119L80.1153 126.526ZM93.7218 121.758L100.311 129.199L96.8935 129.734L92.128 124.15L90.4336 126.558L91.134 130.631L88.3079 131.074L85.9608 117.463L88.7869 117.02L89.7861 122.801L94.0652 116.197L97.9071 115.601L93.7168 121.76L93.7218 121.758Z" fill="#212121"/>
<path d="M107.421 114.113L109.768 127.724L106.942 128.166L104.595 114.555L107.421 114.113Z" fill="#212121"/>
<path d="M125.136 111.351L127.484 124.962L124.719 125.391L123.055 115.747L121.708 124.886L118.475 125.39L114.121 117.141L115.785 126.784L113.028 127.216L110.681 113.605L114.813 112.961L119.543 121.944L121 111.996L125.136 111.351ZM142.857 108.588L145.204 122.199L142.44 122.627L140.776 112.984L139.429 122.122L136.195 122.627L131.842 114.378L133.506 124.021L130.749 124.453L128.402 110.842L132.534 110.198L137.264 119.18L138.72 109.233L142.857 108.588Z" fill="#212121"/>
<path d="M148.95 107.641L151.297 121.253L148.471 121.695L146.124 108.084L148.95 107.641Z" fill="#212121"/>
<path d="M163.876 105.311L166.223 118.922L163.053 119.418L155.841 111.341L157.384 120.303L154.558 120.745L152.211 107.134L155.381 106.639L162.607 114.793L161.05 105.754L163.876 105.311Z" fill="#212121"/>
<path d="M170.448 107.157L170.865 109.588L177.147 108.609L177.631 111.399L171.348 112.378L171.832 115.186L178.665 114.123L179.148 116.913L169.485 118.42L167.138 104.809L176.801 103.302L177.285 106.092L170.453 107.155L170.448 107.157Z" fill="#212121"/>
<path d="M191.082 101.075L193.429 114.686L190.259 115.181L183.047 107.104L184.59 116.066L181.764 116.509L179.417 102.898L182.587 102.402L189.813 110.557L188.256 101.517L191.082 101.075Z" fill="#212121"/>
<path d="M193.005 100.773L205.326 98.8538L205.81 101.644L201.077 102.384L202.94 113.204L200.102 113.645L198.239 102.824L193.493 103.562L193.01 100.771L193.005 100.773Z" fill="#212121"/>
<path d="M224.264 104.678C225.284 104.347 225.828 103.205 225.479 102.128C225.129 101.05 224.018 100.446 222.997 100.777C221.977 101.108 221.433 102.25 221.783 103.327C222.132 104.405 223.243 105.01 224.264 104.678Z" fill="black"/>
<path d="M219.993 103.047L217.36 103.093C216.979 103.152 216.739 103.54 216.843 103.929C217.43 106.199 218.924 108.204 221.056 109.317C221.405 109.502 221.823 109.337 221.951 108.962L222.47 106.233C222.555 106 222.461 105.726 222.244 105.603C221.396 105.129 220.795 104.322 220.538 103.409C220.469 103.162 220.231 103.011 219.991 103.042L219.993 103.047Z" fill="black"/>
<path d="M225.027 99.2857L226.193 96.8567C226.223 96.7676 226.235 96.6723 226.227 96.5769C226.22 96.4815 226.193 96.3883 226.149 96.3031C226.105 96.2179 226.045 96.1427 225.972 96.0824C225.9 96.0221 225.816 95.978 225.727 95.953C223.559 95.3267 221.199 95.665 219.286 97.0415C218.971 97.267 218.921 97.7285 219.174 98.045L221.219 99.9181C221.377 100.113 221.651 100.171 221.851 100.035C222.639 99.5042 223.59 99.3714 224.469 99.6016C224.706 99.6652 224.943 99.5238 225.027 99.2857Z" fill="black"/>
<path d="M225.853 105.662L227.33 107.989C227.39 108.063 227.464 108.122 227.546 108.165C227.629 108.208 227.718 108.233 227.809 108.238C227.9 108.243 227.99 108.229 228.074 108.195C228.158 108.162 228.234 108.111 228.297 108.045C229.079 107.213 229.672 106.208 230.036 105.1C230.4 103.991 230.525 102.805 230.405 101.624C230.363 101.222 230.001 100.929 229.624 100.999L227.112 101.879C226.876 101.92 226.701 102.135 226.718 102.393C226.79 103.383 226.46 104.317 225.855 105C225.692 105.181 225.697 105.472 225.855 105.667L225.853 105.662Z" fill="black"/>
<path d="M480.47 64.7425C481.49 64.4112 482.034 63.2693 481.685 62.1919C481.335 61.1146 480.224 60.5097 479.203 60.841C478.183 61.1723 477.639 62.3142 477.989 63.3915C478.338 64.4689 479.449 65.0738 480.47 64.7425Z" fill="black"/>
<path d="M476.205 63.1095L473.572 63.1554C473.191 63.2144 472.951 63.603 473.055 63.9912C473.642 66.2616 475.136 68.2667 477.268 69.3795C477.617 69.5651 478.035 69.4 478.163 69.0245L478.682 66.2956C478.767 66.0628 478.673 65.7888 478.455 65.666C477.607 65.1913 477.007 64.3842 476.75 63.4716C476.681 63.2245 476.443 63.0732 476.203 63.1042L476.205 63.1095Z" fill="black"/>
<path d="M481.234 59.3499L482.4 56.9209C482.43 56.8318 482.442 56.7365 482.434 56.6411C482.427 56.5457 482.4 56.4525 482.356 56.3673C482.312 56.2821 482.252 56.2069 482.179 56.1466C482.107 56.0863 482.023 56.0422 481.934 56.0172C479.766 55.3909 477.406 55.7292 475.493 57.1058C475.178 57.3312 475.128 57.7927 475.381 58.1092L477.426 59.9823C477.584 60.1773 477.858 60.2348 478.058 60.0995C478.846 59.5684 479.797 59.4356 480.676 59.6658C480.913 59.7295 481.151 59.588 481.234 59.3499Z" fill="black"/>
<path d="M482.065 65.7247L483.542 68.052C483.602 68.1252 483.676 68.185 483.758 68.2278C483.841 68.2706 483.93 68.2953 484.021 68.3005C484.112 68.3057 484.202 68.2912 484.286 68.258C484.37 68.2247 484.446 68.1734 484.509 68.1072C485.291 67.2758 485.884 66.2709 486.248 65.1622C486.611 64.0535 486.737 62.8677 486.616 61.687C486.575 61.2846 486.213 60.9917 485.836 61.0614L483.324 61.9412C483.088 61.9827 482.913 62.1975 482.93 62.4556C483.002 63.4461 482.672 64.3793 482.067 65.0621C481.904 65.244 481.909 65.5351 482.067 65.73L482.065 65.7247Z" fill="black"/>
<path d="M742.103 23.9599C743.123 23.6286 743.667 22.4867 743.318 21.4093C742.968 20.332 741.857 19.7271 740.836 20.0584C739.816 20.3897 739.272 21.5316 739.621 22.6089C739.971 23.6863 741.082 24.2911 742.103 23.9599Z" fill="black"/>
<path d="M737.832 22.3285L735.199 22.3744C734.818 22.4334 734.578 22.822 734.682 23.2101C735.269 25.4806 736.763 27.4857 738.895 28.5985C739.244 28.7841 739.662 28.619 739.79 28.2435L740.309 25.5146C740.394 25.2818 740.3 25.0078 740.082 24.885C739.234 24.4103 738.634 23.6032 738.377 22.6906C738.307 22.4435 738.07 22.2922 737.83 22.3232L737.832 22.3285Z" fill="black"/>
<path d="M742.867 18.5673L744.033 16.1383C744.063 16.0492 744.074 15.9539 744.067 15.8585C744.059 15.7631 744.033 15.6699 743.989 15.5847C743.945 15.4995 743.885 15.4243 743.812 15.364C743.74 15.3037 743.656 15.2596 743.567 15.2346C741.399 14.6083 739.039 14.9466 737.126 16.3232C736.811 16.5486 736.761 17.0101 737.013 17.3266L739.059 19.1997C739.217 19.3947 739.491 19.4522 739.691 19.3169C740.479 18.7858 741.429 18.6531 742.309 18.8832C742.546 18.9469 742.783 18.8054 742.867 18.5673Z" fill="black"/>
<path d="M743.698 24.942L745.175 27.2693C745.235 27.3424 745.309 27.4023 745.391 27.4451C745.473 27.4879 745.563 27.5126 745.654 27.5178C745.745 27.523 745.835 27.5085 745.919 27.4752C746.003 27.442 746.079 27.3907 746.142 27.3245C746.923 26.4931 747.516 25.4882 747.88 24.3795C748.244 23.2708 748.37 22.085 748.249 20.9043C748.207 20.5019 747.846 20.209 747.469 20.2787L744.957 21.1584C744.721 21.2 744.546 21.4148 744.563 21.6729C744.635 22.6633 744.305 23.5966 743.699 24.2794C743.536 24.4612 743.542 24.7524 743.7 24.9473L743.698 24.942Z" fill="black"/>
</g>
<defs>
<clipPath id="clip0_1244_2215">
<rect width="1158.94" height="215.219" fill="white" transform="translate(-164.697 149.304) rotate(-17.9813)"/>
</clipPath>
</defs>
</svg>
