<svg width="1440" height="517" viewBox="0 0 1440 517" fill="none" xmlns="http://www.w3.org/2000/svg">
<g clip-path="url(#clip0_1317_2161)">
<path opacity="0.4" d="M-30.5417 302.661L1487.45 528.89L1482.61 560.071L-35.3838 333.842L-30.5417 302.661Z" fill="#272727"/>
<path d="M-30.8855 298.583L1487.1 524.812L1482.26 555.993L-35.7275 329.764L-30.8855 298.583Z" fill="#FF7315"/>
<path d="M-30.8855 298.583L1487.1 524.812L1482.26 555.993L-35.7275 329.764L-30.8855 298.583Z" stroke="#0C0C0C" stroke-width="4" stroke-miterlimit="10"/>
<path d="M506.705 395.479C505.864 400.887 501.887 403.7 496.479 402.896C491.056 402.086 488.123 398.245 488.964 392.837C489.805 387.429 493.767 384.61 499.19 385.42C504.599 386.224 507.546 390.072 506.705 395.479ZM492.732 393.395C492.182 396.916 493.893 399.089 496.993 399.552C500.087 400.015 502.374 398.435 502.923 394.914C503.472 391.393 501.762 389.221 498.669 388.764C495.568 388.301 493.274 389.881 492.732 393.395Z" fill="#272727"/>
<path d="M526.157 389.833L524.489 400.601C523.898 404.408 520.7 406.506 516.042 405.818C511.377 405.123 508.965 402.188 509.556 398.381L511.224 387.613L514.943 388.165L513.31 398.708C512.997 400.723 514.165 402.113 516.556 402.467C518.948 402.821 520.484 401.834 520.797 399.824L522.431 389.282L526.15 389.833H526.157Z" fill="#272727"/>
<path d="M528.569 390.194L544.781 392.612L544.253 396.038L538.024 395.111L535.959 408.392L532.226 407.833L534.291 394.553L528.048 393.62L528.576 390.194H528.569Z" fill="#272727"/>
<path d="M555.585 394.219C559.248 394.764 560.993 396.61 560.576 399.3C560.319 400.955 559.339 402.181 557.677 402.589C559.429 403.461 560.131 404.878 559.846 406.73C559.38 409.727 556.676 411.477 553.2 410.959L544.719 409.699L547.312 392.993L555.578 394.226L555.585 394.219ZM548.966 406.907L553.555 407.588C554.973 407.799 555.939 407.118 556.127 405.933C556.315 404.721 555.564 403.856 554.16 403.652L549.578 402.971L548.966 406.907ZM550.009 400.199L554.431 400.86C555.724 401.05 556.579 400.512 556.739 399.484C556.906 398.401 556.169 397.734 555.015 397.556L550.517 396.889L550.002 400.199H550.009Z" fill="#272727"/>
<path d="M574.203 396.991C577.832 397.529 579.451 400.274 578.993 403.223C578.624 405.579 577.004 407.479 574.682 408.038L577.088 414.508L572.833 413.874L570.636 407.888L567.105 407.364L566.243 412.901L562.523 412.349L565.117 395.643L574.217 396.998L574.203 396.991ZM567.612 404.02L572.242 404.708C573.8 404.939 575.009 404.19 575.225 402.814C575.433 401.466 574.529 400.54 573.118 400.328L568.301 399.613L567.619 404.02H567.612Z" fill="#272727"/>
<path d="M586.604 402.344L586.139 405.327L594.404 406.56L593.876 409.986L585.61 408.753L585.075 412.199L594.064 413.541L593.535 416.966L580.82 415.073L583.413 398.367L596.129 400.26L595.6 403.686L586.611 402.344H586.604ZM604.839 401.554L609.713 402.283L613.946 420.004L609.928 419.404L609.073 415.666L601.405 414.521L599.452 417.845L595.433 417.246L604.839 401.554ZM608.274 412.042L606.744 405.341L603.254 411.293L608.274 412.042Z" fill="#272727"/>
<path d="M627.253 411.634L632.481 422.769L627.983 422.101L624.277 413.813L621.177 415.972L620.398 420.971L616.679 420.419L619.272 403.713L622.991 404.265L621.893 411.361L629.936 405.3L634.99 406.056L627.239 411.634H627.253Z" fill="#272727"/>
<path d="M647.511 407.915L644.918 424.621L641.198 424.07L643.791 407.364L647.511 407.915Z" fill="#272727"/>
<path d="M670.828 411.389L668.234 428.095L664.599 427.55L666.434 415.713L661.032 425.827L656.778 425.193L654.678 413.963L652.843 425.8L649.214 425.262L651.807 408.555L657.243 409.366L659.517 421.591L665.384 410.578L670.828 411.389ZM694.144 414.862L691.551 431.568L687.915 431.023L689.751 419.187L684.349 429.3L680.094 428.667L677.995 417.436L676.16 429.273L672.531 428.735L675.124 412.029L680.56 412.839L682.834 425.064L688.701 414.051L694.144 414.862Z" fill="#272727"/>
<path d="M702.16 416.061L699.567 432.767L695.848 432.215L698.441 415.509L702.16 416.061Z" fill="#272727"/>
<path d="M721.793 418.982L719.2 435.688L715.028 435.069L709.279 422.959L707.569 433.958L703.85 433.407L706.443 416.701L710.614 417.32L716.349 429.525L718.073 418.431L721.793 418.982Z" fill="#272727"/>
<path d="M729.273 423.607L728.808 426.59L737.073 427.822L736.545 431.248L728.279 430.015L727.744 433.461L736.733 434.803L736.204 438.229L723.489 436.335L726.082 419.629L738.798 421.523L738.269 424.948L729.28 423.607H729.273Z" fill="#272727"/>
<path d="M757.595 424.322L755.002 441.028L750.831 440.408L745.082 428.299L743.372 439.298L739.652 438.746L742.245 422.04L746.417 422.66L752.152 434.864L753.876 423.77L757.595 424.322Z" fill="#272727"/>
<path d="M760.126 424.696L776.338 427.114L775.81 430.54L769.581 429.613L767.516 442.894L763.783 442.335L765.847 429.055L759.604 428.122L760.133 424.696H760.126Z" fill="#272727"/>
<path d="M849.945 446.626C849.104 452.033 845.128 454.846 839.719 454.043C834.296 453.232 831.363 449.391 832.204 443.983C833.045 438.576 837.008 435.756 842.43 436.567C847.839 437.371 850.787 441.218 849.945 446.626ZM835.972 444.542C835.423 448.063 837.133 450.235 840.233 450.699C843.327 451.162 845.614 449.582 846.164 446.061C846.713 442.54 845.002 440.367 841.909 439.911C838.808 439.448 836.514 441.028 835.972 444.542Z" fill="#272727"/>
<path d="M869.397 440.98L867.729 451.748C867.138 455.555 863.94 457.652 859.282 456.964C854.617 456.27 852.205 453.334 852.796 449.527L854.464 438.76L858.184 439.312L856.55 449.854C856.237 451.87 857.405 453.26 859.797 453.614C862.188 453.968 863.724 452.98 864.037 450.971L865.671 440.429L869.39 440.98H869.397Z" fill="#272727"/>
<path d="M871.809 441.341L888.021 443.759L887.493 447.184L881.264 446.258L879.199 459.539L875.466 458.98L877.531 445.7L871.288 444.767L871.816 441.341H871.809Z" fill="#272727"/>
<path d="M898.825 445.366C902.489 445.911 904.234 447.757 903.816 450.447C903.559 452.102 902.579 453.327 900.917 453.736C902.669 454.608 903.371 456.024 903.086 457.877C902.621 460.873 899.916 462.624 896.44 462.106L887.959 460.846L890.552 444.14L898.818 445.373L898.825 445.366ZM892.207 458.054L896.795 458.735C898.213 458.946 899.179 458.265 899.367 457.08C899.555 455.868 898.804 455.003 897.4 454.799L892.818 454.117L892.207 458.054ZM893.249 451.346L897.671 452.006C898.964 452.197 899.819 451.659 899.979 450.631C900.146 449.548 899.409 448.88 898.255 448.703L893.757 448.036L893.242 451.346H893.249Z" fill="#272727"/>
<path d="M917.442 448.138C921.071 448.676 922.691 451.421 922.232 454.37C921.863 456.726 920.244 458.626 917.922 459.185L920.327 465.655L916.072 465.021L913.876 459.035L910.344 458.51L909.482 464.047L905.763 463.496L908.356 446.79L917.456 448.145L917.442 448.138ZM910.852 455.166L915.482 455.854C917.039 456.086 918.248 455.337 918.464 453.961C918.673 452.613 917.769 451.686 916.357 451.475L911.54 450.76L910.859 455.166H910.852Z" fill="#272727"/>
<path d="M929.845 453.491L929.379 456.474L937.645 457.707L937.116 461.132L928.85 459.9L928.315 463.346L937.304 464.687L936.776 468.113L924.061 466.22L926.654 449.514L939.369 451.407L938.84 454.833L929.852 453.491H929.845ZM948.08 452.701L952.953 453.43L957.187 471.151L953.168 470.551L952.313 466.812L944.645 465.668L942.692 468.992L938.674 468.392L948.08 452.701ZM951.514 463.189L949.984 456.488L946.495 462.44L951.514 463.189Z" fill="#272727"/>
<path d="M970.493 462.78L975.721 473.916L971.223 473.248L967.517 464.96L964.417 467.119L963.638 472.118L959.919 471.566L962.512 454.86L966.231 455.412L965.133 462.508L973.176 456.447L978.23 457.203L970.479 462.78H970.493Z" fill="#272727"/>
<path d="M990.758 459.062L988.165 475.768L984.445 475.216L987.038 458.51L990.758 459.062Z" fill="#272727"/>
<path d="M1014.07 462.535L1011.47 479.241L1007.84 478.697L1009.67 466.86L1004.27 476.973L1000.02 476.34L997.918 465.11L996.083 476.946L992.454 476.408L995.047 459.702L1000.48 460.513L1002.76 472.737L1008.62 461.725L1014.07 462.535ZM1037.38 466.009L1034.79 482.715L1031.16 482.17L1032.99 470.333L1027.59 480.447L1023.33 479.813L1021.24 468.583L1019.4 480.42L1015.77 479.882L1018.36 463.175L1023.8 463.986L1026.07 476.211L1031.94 465.198L1037.38 466.009Z" fill="#272727"/>
<path d="M1045.4 467.207L1042.81 483.913L1039.09 483.362L1041.68 466.656L1045.4 467.207Z" fill="#272727"/>
<path d="M1065.04 470.129L1062.45 486.835L1058.28 486.215L1052.53 474.106L1050.82 485.105L1047.1 484.553L1049.69 467.847L1053.86 468.467L1059.6 480.672L1061.32 469.577L1065.04 470.129Z" fill="#272727"/>
<path d="M1072.52 474.753L1072.05 477.736L1080.32 478.969L1079.79 482.395L1071.53 481.162L1070.99 484.608L1079.98 485.95L1079.45 489.375L1066.74 487.482L1069.33 470.776L1082.04 472.669L1081.52 476.095L1072.53 474.753H1072.52Z" fill="#272727"/>
<path d="M1100.84 475.468L1098.24 492.174L1094.07 491.555L1088.32 479.446L1086.61 490.444L1082.89 489.893L1085.49 473.187L1089.66 473.807L1095.39 486.011L1097.12 474.917L1100.84 475.468Z" fill="#272727"/>
<path d="M1103.37 475.843L1119.58 478.261L1119.05 481.686L1112.82 480.76L1110.76 494.041L1107.02 493.482L1109.09 480.202L1102.84 479.269L1103.37 475.843H1103.37Z" fill="#272727"/>
<path d="M1187.34 496.901C1186.5 502.308 1182.52 505.121 1177.11 504.317C1171.69 503.507 1168.76 499.666 1169.6 494.258C1170.44 488.851 1174.4 486.031 1179.82 486.842C1185.23 487.645 1188.18 491.493 1187.34 496.901ZM1173.37 494.817C1172.82 498.338 1174.53 500.51 1177.63 500.974C1180.72 501.437 1183.01 499.857 1183.56 496.336C1184.11 492.815 1182.4 490.642 1179.3 490.186C1176.2 489.723 1173.91 491.303 1173.37 494.817Z" fill="#272727"/>
<path d="M1206.79 491.255L1205.12 502.022C1204.53 505.83 1201.33 507.927 1196.68 507.239C1192.01 506.545 1189.6 503.609 1190.19 499.802L1191.86 489.035L1195.58 489.587L1193.94 500.129C1193.63 502.145 1194.8 503.534 1197.19 503.889C1199.58 504.243 1201.12 503.255 1201.43 501.246L1203.06 490.703L1206.78 491.255H1206.79Z" fill="#272727"/>
<path d="M1209.2 491.616L1225.42 494.034L1224.89 497.459L1218.66 496.533L1216.59 509.814L1212.86 509.255L1214.92 495.975L1208.68 495.042L1209.21 491.616H1209.2Z" fill="#272727"/>
<path d="M1236.22 495.641C1239.88 496.186 1241.63 498.031 1241.21 500.722C1240.95 502.376 1239.97 503.602 1238.31 504.011C1240.06 504.883 1240.76 506.299 1240.48 508.152C1240.01 511.148 1237.31 512.899 1233.83 512.381L1225.35 511.121L1227.94 494.415L1236.21 495.648L1236.22 495.641ZM1229.6 508.329L1234.19 509.01C1235.61 509.221 1236.57 508.54 1236.76 507.355C1236.95 506.143 1236.2 505.278 1234.79 505.073L1230.21 504.392L1229.6 508.329ZM1230.64 501.621L1235.06 502.281C1236.36 502.472 1237.21 501.934 1237.37 500.905C1237.54 499.823 1236.8 499.155 1235.65 498.978L1231.15 498.311L1230.64 501.621H1230.64Z" fill="#272727"/>
<path d="M1254.84 498.413C1258.46 498.951 1260.08 501.696 1259.63 504.645C1259.26 507.001 1257.64 508.901 1255.32 509.46L1257.72 515.929L1253.47 515.296L1251.27 509.31L1247.74 508.785L1246.88 514.322L1243.16 513.771L1245.75 497.064L1254.85 498.42L1254.84 498.413ZM1248.25 505.441L1252.88 506.129C1254.43 506.361 1255.64 505.612 1255.86 504.236C1256.07 502.887 1255.16 501.961 1253.75 501.75L1248.93 501.035L1248.25 505.441H1248.25Z" fill="#272727"/>
<path d="M1267.24 503.766L1266.77 506.749L1275.04 507.982L1274.51 511.407L1266.24 510.175L1265.71 513.621L1274.7 514.962L1274.17 518.388L1261.45 516.495L1264.05 499.789L1276.76 501.682L1276.23 505.108L1267.24 503.766H1267.24ZM1285.47 502.976L1290.35 503.705L1294.58 521.425L1290.56 520.826L1289.71 517.087L1282.04 515.943L1280.08 519.267L1276.07 518.667L1285.47 502.976ZM1288.91 513.464L1287.38 506.763L1283.89 512.715L1288.91 513.464Z" fill="#272727"/>
<path d="M1307.89 513.055L1313.11 524.19L1308.62 523.523L1304.91 515.235L1301.81 517.394L1301.03 522.392L1297.31 521.841L1299.9 505.135L1303.62 505.686L1302.53 512.783L1310.57 506.722L1315.62 507.478L1307.87 513.055H1307.89Z" fill="#272727"/>
<path d="M1328.15 509.337L1325.56 526.043L1321.84 525.491L1324.43 508.785L1328.15 509.337Z" fill="#272727"/>
<path d="M1351.46 512.81L1348.87 529.516L1345.23 528.971L1347.07 517.135L1341.67 527.248L1337.41 526.615L1335.31 515.385L1333.48 527.221L1329.85 526.683L1332.44 509.977L1337.88 510.787L1340.15 523.012L1346.02 512L1351.46 512.81ZM1374.78 516.284L1372.18 532.99L1368.55 532.445L1370.38 520.608L1364.98 530.722L1360.73 530.088L1358.63 518.858L1356.79 530.694L1353.16 530.156L1355.76 513.45L1361.19 514.261L1363.47 526.486L1369.33 515.473L1374.78 516.284Z" fill="#272727"/>
<path d="M1382.79 517.482L1380.2 534.188L1376.48 533.637L1379.07 516.93L1382.79 517.482Z" fill="#272727"/>
<path d="M176.987 346.349C176.146 351.756 172.17 354.569 166.761 353.765C161.338 352.955 158.405 349.114 159.246 343.706C160.087 338.299 164.05 335.479 169.472 336.29C174.881 337.093 177.829 340.941 176.987 346.349ZM163.014 344.265C162.465 347.786 164.175 349.958 167.275 350.421C170.369 350.884 172.656 349.304 173.206 345.783C173.755 342.262 172.044 340.09 168.951 339.633C165.85 339.17 163.556 340.75 163.014 344.265Z" fill="#272727"/>
<path d="M196.446 340.703L194.778 351.47C194.187 355.277 190.989 357.375 186.331 356.68C181.666 355.985 179.254 353.05 179.845 349.243L181.513 338.476L185.233 339.027L183.599 349.57C183.286 351.586 184.454 352.975 186.845 353.329C189.237 353.683 190.773 352.696 191.086 350.687L192.72 340.144L196.439 340.696L196.446 340.703Z" fill="#272727"/>
<path d="M198.851 341.064L215.063 343.481L214.535 346.907L208.306 345.981L206.241 359.261L202.508 358.703L204.573 345.422L198.33 344.489L198.858 341.064H198.851Z" fill="#272727"/>
<path d="M225.867 345.089C229.53 345.633 231.275 347.479 230.858 350.169C230.601 351.824 229.621 353.05 227.966 353.459C229.718 354.33 230.42 355.747 230.135 357.599C229.67 360.596 226.965 362.346 223.489 361.829L215.008 360.562L217.601 343.856L225.867 345.089ZM219.249 357.777L223.837 358.458C225.255 358.669 226.221 357.988 226.409 356.803C226.597 355.59 225.846 354.725 224.442 354.521L219.86 353.84L219.249 357.777ZM220.291 351.068L224.713 351.729C226.006 351.92 226.861 351.382 227.021 350.353C227.188 349.27 226.451 348.603 225.304 348.426L220.806 347.758L220.291 351.068Z" fill="#272727"/>
<path d="M244.484 347.86C248.113 348.398 249.733 351.143 249.274 354.092C248.905 356.448 247.286 358.349 244.964 358.907L247.369 365.377L243.114 364.744L240.918 358.757L237.386 358.233L236.524 363.77L232.805 363.218L235.398 346.512L244.498 347.867L244.484 347.86ZM237.894 354.889L242.524 355.577C244.081 355.808 245.29 355.059 245.506 353.683C245.715 352.335 244.811 351.409 243.399 351.198L238.582 350.482L237.9 354.889H237.894Z" fill="#272727"/>
<path d="M256.887 353.214L256.421 356.197L264.687 357.429L264.158 360.855L255.892 359.622L255.357 363.068L264.346 364.41L263.818 367.836L251.103 365.942L253.696 349.236L266.411 351.13L265.882 354.555L256.894 353.214H256.887ZM275.122 352.424L279.995 353.152L284.229 370.88L280.21 370.281L279.355 366.542L271.687 365.398L269.734 368.721L265.716 368.122L275.122 352.43V352.424ZM278.556 362.912L277.026 356.21L273.537 362.163L278.556 362.912ZM297.535 362.503L302.763 373.638L298.265 372.971L294.566 364.682L291.466 366.841L290.687 371.84L286.968 371.289L289.561 354.583L293.28 355.134L292.182 362.231L300.225 356.169L305.279 356.925L297.528 362.503H297.535Z" fill="#272727"/>
<path d="M317.8 358.785L315.207 375.491L311.487 374.939L314.08 358.233L317.8 358.785Z" fill="#272727"/>
<path d="M341.11 362.258L338.517 378.964L334.881 378.419L336.716 366.583L331.314 376.696L327.06 376.063L324.96 364.832L323.125 376.669L319.496 376.131L322.089 359.425L327.526 360.235L329.799 372.46L335.666 361.448L341.11 362.258ZM364.427 365.731L361.834 382.437L358.198 381.893L360.033 370.056L354.631 380.17L350.377 379.536L348.277 368.306L346.442 380.142L342.813 379.604L345.406 362.898L350.843 363.709L353.116 375.933L358.983 364.921L364.427 365.731Z" fill="#272727"/>
<path d="M372.442 366.93L369.849 383.636L366.13 383.084L368.723 366.378L372.442 366.93Z" fill="#272727"/>
<path d="M392.082 369.852L389.489 386.558L385.317 385.938L379.568 373.829L377.858 384.828L374.139 384.276L376.732 367.57L380.903 368.19L386.638 380.394L388.362 369.3L392.082 369.852Z" fill="#272727"/>
<path d="M399.561 374.476L399.096 377.459L407.361 378.692L406.833 382.117L398.567 380.885L398.032 384.331L407.021 385.672L406.492 389.098L393.777 387.205L396.37 370.499L409.086 372.392L408.557 375.818L399.568 374.476H399.561Z" fill="#272727"/>
<path d="M427.877 375.191L425.284 391.897L421.112 391.277L415.363 379.168L413.653 390.167L409.934 389.616L412.527 372.909L416.698 373.529L422.433 385.734L424.157 374.639L427.877 375.191Z" fill="#272727"/>
<path d="M430.407 375.565L446.619 377.983L446.091 381.409L439.862 380.483L437.797 393.763L434.064 393.205L436.129 379.924L429.886 378.991L430.414 375.565H430.407Z" fill="#272727"/>
<path d="M467.968 391.897C469.381 391.897 470.527 390.775 470.527 389.391C470.527 388.007 469.381 386.885 467.968 386.885C466.556 386.885 465.41 388.007 465.41 389.391C465.41 390.775 466.556 391.897 467.968 391.897Z" fill="black"/>
<path d="M463.284 388.39L459.967 387.45C459.467 387.375 459.008 387.736 458.98 388.226C458.793 391.087 459.849 393.981 462.067 396.079C462.428 396.426 463.019 396.392 463.332 396.004L465.091 393.028C465.293 392.789 465.286 392.435 465.063 392.21C464.194 391.339 463.77 390.174 463.819 389.016C463.833 388.703 463.596 388.437 463.284 388.383V388.39Z" fill="black"/>
<path d="M471.118 385.917L473.565 383.534C473.639 383.442 473.692 383.335 473.722 383.222C473.751 383.108 473.756 382.989 473.735 382.874C473.715 382.758 473.67 382.648 473.604 382.551C473.537 382.453 473.451 382.37 473.349 382.308C470.888 380.762 467.795 380.265 464.84 381.143C464.354 381.286 464.103 381.804 464.291 382.267L466.092 385.216C466.21 385.502 466.53 385.672 466.835 385.591C468.038 385.27 469.283 385.475 470.291 386.074C470.562 386.238 470.916 386.163 471.118 385.917Z" fill="black"/>
<path d="M469.56 393.641L470.464 396.903C470.51 397.011 470.578 397.108 470.663 397.189C470.749 397.269 470.851 397.332 470.963 397.372C471.074 397.413 471.193 397.43 471.312 397.423C471.431 397.416 471.547 397.385 471.653 397.332C472.969 396.66 474.121 395.716 475.027 394.565C475.934 393.413 476.573 392.082 476.902 390.664C477.013 390.181 476.679 389.704 476.179 389.643L472.675 389.718C472.362 389.677 472.056 389.861 471.973 390.167C471.66 391.345 470.867 392.306 469.832 392.871C469.554 393.021 469.442 393.361 469.56 393.647V393.641Z" fill="black"/>
<path d="M805.077 442.131C806.49 442.131 807.635 441.009 807.635 439.625C807.635 438.241 806.49 437.119 805.077 437.119C803.664 437.119 802.519 438.241 802.519 439.625C802.519 441.009 803.664 442.131 805.077 442.131Z" fill="black"/>
<path d="M800.399 438.624L797.083 437.684C796.582 437.609 796.123 437.97 796.095 438.46C795.908 441.32 796.964 444.215 799.182 446.313C799.544 446.66 800.135 446.626 800.447 446.238L802.206 443.261C802.408 443.023 802.401 442.669 802.178 442.444C801.309 441.572 800.885 440.408 800.934 439.25C800.948 438.937 800.712 438.671 800.399 438.617V438.624Z" fill="black"/>
<path d="M808.226 436.152L810.673 433.768C810.747 433.676 810.801 433.569 810.83 433.456C810.859 433.342 810.864 433.224 810.844 433.108C810.823 432.992 810.779 432.882 810.712 432.785C810.646 432.687 810.559 432.605 810.458 432.542C807.997 430.996 804.903 430.499 801.949 431.377C801.462 431.52 801.212 432.038 801.399 432.501L803.2 435.45C803.318 435.736 803.638 435.906 803.944 435.825C805.146 435.505 806.391 435.709 807.399 436.308C807.67 436.472 808.025 436.397 808.226 436.152Z" fill="black"/>
<path d="M806.676 443.874L807.579 447.137C807.625 447.244 807.693 447.342 807.779 447.423C807.864 447.503 807.966 447.566 808.078 447.606C808.19 447.646 808.309 447.664 808.427 447.657C808.546 447.65 808.662 447.619 808.768 447.566C810.085 446.894 811.236 445.95 812.142 444.798C813.049 443.647 813.688 442.316 814.017 440.898C814.128 440.415 813.795 439.938 813.294 439.877L809.79 439.952C809.477 439.911 809.171 440.095 809.088 440.401C808.775 441.579 807.983 442.54 806.947 443.105C806.669 443.255 806.558 443.595 806.676 443.881V443.874Z" fill="black"/>
<path d="M1149.32 493.428C1150.74 493.428 1151.88 492.305 1151.88 490.921C1151.88 489.537 1150.74 488.415 1149.32 488.415C1147.91 488.415 1146.77 489.537 1146.77 490.921C1146.77 492.305 1147.91 493.428 1149.32 493.428Z" fill="black"/>
<path d="M1144.64 489.92L1141.32 488.98C1140.82 488.905 1140.36 489.266 1140.34 489.757C1140.15 492.617 1141.2 495.512 1143.42 497.609C1143.78 497.957 1144.37 497.922 1144.69 497.534L1146.45 494.558C1146.65 494.32 1146.64 493.966 1146.42 493.741C1145.55 492.869 1145.13 491.705 1145.17 490.547C1145.19 490.233 1144.95 489.968 1144.64 489.913V489.92Z" fill="black"/>
<path d="M1152.47 487.448L1154.92 485.064C1155 484.972 1155.05 484.866 1155.08 484.752C1155.11 484.638 1155.11 484.52 1155.09 484.404C1155.07 484.289 1155.03 484.179 1154.96 484.081C1154.89 483.984 1154.81 483.901 1154.71 483.838C1152.24 482.292 1149.15 481.795 1146.2 482.674C1145.71 482.817 1145.46 483.334 1145.65 483.798L1147.45 486.746C1147.57 487.032 1147.89 487.203 1148.19 487.121C1149.39 486.801 1150.64 487.005 1151.65 487.605C1151.92 487.768 1152.27 487.693 1152.47 487.448Z" fill="black"/>
<path d="M1150.92 495.171L1151.83 498.433C1151.87 498.541 1151.94 498.638 1152.03 498.719C1152.11 498.8 1152.21 498.862 1152.33 498.903C1152.44 498.943 1152.56 498.96 1152.68 498.953C1152.79 498.946 1152.91 498.915 1153.02 498.862C1154.33 498.191 1155.48 497.246 1156.39 496.095C1157.3 494.944 1157.94 493.613 1158.27 492.195C1158.38 491.711 1158.04 491.235 1157.54 491.173L1154.04 491.248C1153.73 491.207 1153.42 491.391 1153.34 491.698C1153.02 492.876 1152.23 493.836 1151.19 494.402C1150.92 494.551 1150.81 494.892 1150.92 495.178V495.171Z" fill="black"/>
</g>
<g clip-path="url(#clip1_1317_2161)">
<path opacity="0.4" d="M-11.7602 486.025L1499.83 220.369L1505.1 251.48L-6.48862 517.136L-11.7602 486.025Z" fill="#272727"/>
<path d="M-13.3764 482.266L1498.21 216.61L1503.48 247.721L-8.10462 513.377L-13.3764 482.266Z" fill="#BBF250"/>
<path d="M-13.3764 482.266L1498.21 216.61L1503.48 247.721L-8.10462 513.377L-13.3764 482.266Z" stroke="#0C0C0C" stroke-width="4" stroke-miterlimit="10"/>
<path d="M527.256 404.101C528.168 409.497 525.286 413.423 519.901 414.372C514.501 415.319 510.502 412.603 509.589 407.207C508.677 401.811 511.544 397.883 516.944 396.936C522.329 395.987 526.343 398.705 527.256 404.101ZM513.341 406.545C513.934 410.059 516.243 411.579 519.331 411.037C522.412 410.497 524.082 408.275 523.489 404.761C522.896 401.247 520.586 399.727 517.507 400.273C514.419 400.815 512.743 403.04 513.341 406.545Z" fill="#272727"/>
<path d="M543.922 392.591L545.746 403.333C546.39 407.131 544.02 410.133 539.384 410.954C534.739 411.771 531.522 409.75 530.878 405.951L529.054 395.209L532.757 394.556L534.542 405.074C534.883 407.085 536.431 408.034 538.812 407.613C541.192 407.192 542.337 405.769 541.998 403.764L540.213 393.246L543.915 392.593L543.922 392.591Z" fill="#272727"/>
<path d="M546.325 392.17L562.469 389.334L563.051 392.751L556.849 393.843L559.092 407.095L555.374 407.746L553.131 394.495L546.914 395.585L546.331 392.168L546.325 392.17Z" fill="#272727"/>
<path d="M573.226 387.441C576.874 386.799 579.113 387.997 579.568 390.681C579.848 392.333 579.306 393.806 577.859 394.719C579.797 394.992 580.911 396.113 581.227 397.961C581.733 400.951 579.721 403.467 576.26 404.076L567.816 405.564L564.99 388.895L573.221 387.45L573.226 387.441ZM570.962 401.571L575.53 400.765C576.942 400.517 577.643 399.565 577.446 398.382C577.241 397.172 576.255 396.589 574.858 396.84L570.297 397.643L570.962 401.571ZM569.829 394.877L574.232 394.105C575.519 393.877 576.16 393.096 575.986 392.07C575.802 390.99 574.892 390.59 573.741 390.787L569.263 391.577L569.822 394.88L569.829 394.877Z" fill="#272727"/>
<path d="M591.764 384.18C595.377 383.543 597.782 385.634 598.279 388.576C598.675 390.928 597.74 393.243 595.714 394.508L600.043 399.884L595.806 400.629L591.828 395.646L588.312 396.265L589.246 401.791L585.543 402.444L582.718 385.776L591.779 384.182L591.764 384.18ZM587.736 392.933L592.345 392.12C593.896 391.847 594.806 390.754 594.576 389.381C594.347 388.036 593.196 387.443 591.791 387.689L586.994 388.535L587.742 392.931L587.736 392.933Z" fill="#272727"/>
<path d="M605.223 385.334L605.725 388.312L613.956 386.866L614.539 390.283L606.307 391.728L606.89 395.167L615.841 393.596L616.424 397.013L603.763 399.239L600.937 382.571L613.598 380.344L614.181 383.761L605.229 385.332L605.223 385.334ZM622.271 378.816L627.125 377.965L636.748 393.436L632.746 394.139L630.752 390.863L623.116 392.203L622.314 395.974L618.313 396.677L622.271 378.816ZM628.847 387.679L625.276 381.805L623.849 388.556L628.847 387.679Z" fill="#272727"/>
<path d="M646.721 381.286L655.204 390.196L650.726 390.986L644.588 384.295L642.33 387.324L643.173 392.313L639.47 392.966L636.644 376.298L640.347 375.644L641.55 382.724L647.263 374.429L652.297 373.547L646.708 381.291L646.721 381.286Z" fill="#272727"/>
<path d="M664.762 371.35L667.588 388.018L663.885 388.671L661.059 372.003L664.762 371.35Z" fill="#272727"/>
<path d="M687.981 367.268L690.806 383.936L687.185 384.569L685.181 372.76L683.257 384.063L679.02 384.809L673.475 374.819L675.479 386.628L671.867 387.266L669.041 370.598L674.455 369.647L680.479 380.524L682.561 368.221L687.981 367.268ZM711.199 363.186L714.025 379.854L710.403 380.487L708.399 368.678L706.475 379.981L702.238 380.726L696.694 370.737L698.697 382.546L695.085 383.184L692.259 366.516L697.673 365.565L703.697 376.442L705.779 364.139L711.199 363.186Z" fill="#272727"/>
<path d="M719.182 361.787L722.008 378.455L718.305 379.108L715.479 362.44L719.182 361.787Z" fill="#272727"/>
<path d="M738.731 358.347L741.556 375.015L737.403 375.747L728.118 366.079L729.976 377.054L726.273 377.707L723.447 361.039L727.6 360.307L736.902 370.07L735.028 359L738.731 358.347Z" fill="#272727"/>
<path d="M747.289 360.367L747.791 363.344L756.022 361.898L756.605 365.315L748.374 366.761L748.956 370.199L757.908 368.628L758.49 372.045L745.829 374.272L743.004 357.603L755.665 355.377L756.247 358.794L747.296 360.365L747.289 360.367Z" fill="#272727"/>
<path d="M774.383 352.085L777.208 368.753L773.055 369.485L763.77 359.817L765.628 370.792L761.925 371.445L759.1 354.777L763.253 354.045L772.555 363.808L770.68 352.738L774.383 352.085Z" fill="#272727"/>
<path d="M776.902 351.639L793.046 348.804L793.629 352.221L787.427 353.313L789.67 366.564L785.951 367.216L783.708 353.964L777.491 355.054L776.908 351.637L776.902 351.639Z" fill="#272727"/>
<path d="M869.046 344.025C869.958 349.421 867.076 353.348 861.691 354.296C856.291 355.243 852.292 352.528 851.379 347.132C850.467 341.736 853.334 337.807 858.734 336.861C864.119 335.912 868.133 338.629 869.046 344.025ZM855.131 346.469C855.724 349.983 858.033 351.503 861.121 350.961C864.202 350.422 865.872 348.2 865.279 344.686C864.686 341.172 862.376 339.652 859.297 340.198C856.21 340.739 854.533 342.964 855.131 346.469Z" fill="#272727"/>
<path d="M885.712 332.515L887.536 343.258C888.18 347.056 885.81 350.058 881.174 350.879C876.529 351.696 873.312 349.674 872.668 345.876L870.844 335.134L874.547 334.48L876.332 344.998C876.673 347.01 878.221 347.958 880.602 347.537C882.982 347.117 884.127 345.694 883.788 343.689L882.003 333.171L885.706 332.518L885.712 332.515Z" fill="#272727"/>
<path d="M888.115 332.095L904.259 329.259L904.841 332.676L898.639 333.768L900.882 347.019L897.164 347.671L894.921 334.419L888.704 335.509L888.121 332.092L888.115 332.095Z" fill="#272727"/>
<path d="M915.016 327.366C918.664 326.723 920.903 327.922 921.358 330.606C921.638 332.257 921.096 333.731 919.649 334.644C921.587 334.917 922.701 336.038 923.017 337.886C923.523 340.876 921.511 343.392 918.05 344L909.606 345.489L906.78 328.82L915.011 327.374L915.016 327.366ZM912.752 341.496L917.32 340.69C918.732 340.442 919.433 339.49 919.236 338.306C919.031 337.097 918.045 336.514 916.648 336.765L912.087 337.568L912.752 341.496ZM911.619 334.802L916.022 334.03C917.309 333.802 917.95 333.021 917.776 331.995C917.592 330.915 916.682 330.515 915.531 330.712L911.053 331.502L911.612 334.804L911.619 334.802Z" fill="#272727"/>
<path d="M933.554 324.105C937.167 323.467 939.572 325.558 940.069 328.501C940.465 330.853 939.53 333.168 937.504 334.432L941.833 339.809L937.596 340.554L933.618 335.57L930.102 336.19L931.036 341.715L927.333 342.369L924.508 325.7L933.569 324.107L933.554 324.105ZM929.526 332.857L934.135 332.045C935.686 331.772 936.596 330.679 936.366 329.305C936.137 327.96 934.986 327.367 933.581 327.614L928.784 328.46L929.532 332.855L929.526 332.857Z" fill="#272727"/>
<path d="M947.013 325.259L947.515 328.236L955.746 326.791L956.329 330.207L948.097 331.653L948.68 335.092L957.632 333.52L958.214 336.937L945.553 339.164L942.727 322.496L955.388 320.269L955.971 323.686L947.019 325.257L947.013 325.259ZM964.061 318.741L968.915 317.89L978.538 333.361L974.536 334.064L972.542 330.787L964.906 332.128L964.104 335.899L960.103 336.602L964.061 318.741ZM970.637 327.603L967.066 321.73L965.639 328.481L970.637 327.603Z" fill="#272727"/>
<path d="M988.511 321.211L996.994 330.12L992.516 330.91L986.378 324.22L984.12 327.249L984.963 332.237L981.26 332.891L978.435 316.222L982.137 315.569L983.34 322.648L989.053 314.354L994.087 313.472L988.498 321.215L988.511 321.211Z" fill="#272727"/>
<path d="M1006.56 311.272L1009.38 327.94L1005.68 328.594L1002.86 311.925L1006.56 311.272Z" fill="#272727"/>
<path d="M1029.77 307.192L1032.6 323.861L1028.98 324.494L1026.97 312.685L1025.05 323.988L1020.81 324.733L1015.27 314.744L1017.27 326.553L1013.66 327.191L1010.83 310.522L1016.24 309.571L1022.27 320.449L1024.35 308.146L1029.77 307.192ZM1052.99 303.11L1055.81 319.778L1052.19 320.412L1050.19 308.603L1048.26 319.906L1044.03 320.651L1038.48 310.662L1040.49 322.471L1036.87 323.109L1034.05 306.44L1039.46 305.489L1045.49 316.367L1047.57 304.063L1052.99 303.11Z" fill="#272727"/>
<path d="M1060.97 301.711L1063.8 318.38L1060.1 319.033L1057.27 302.365L1060.97 301.711Z" fill="#272727"/>
<path d="M1080.53 298.269L1083.35 314.938L1079.2 315.669L1069.91 306.001L1071.77 316.976L1068.07 317.63L1065.24 300.961L1069.4 300.23L1078.7 309.992L1076.82 298.923L1080.53 298.269Z" fill="#272727"/>
<path d="M1089.09 300.289L1089.59 303.267L1097.82 301.821L1098.4 305.238L1090.17 306.683L1090.75 310.122L1099.7 308.551L1100.29 311.968L1087.63 314.194L1084.8 297.526L1097.46 295.299L1098.04 298.716L1089.09 300.287L1089.09 300.289Z" fill="#272727"/>
<path d="M1116.17 292.009L1119 308.678L1114.85 309.409L1105.56 299.741L1107.42 310.716L1103.72 311.37L1100.89 294.701L1105.04 293.97L1114.34 303.732L1112.47 292.663L1116.17 292.009Z" fill="#272727"/>
<path d="M1118.69 291.564L1134.84 288.728L1135.42 292.145L1129.22 293.237L1131.46 306.489L1127.74 307.14L1125.5 293.889L1119.28 294.979L1118.7 291.562L1118.69 291.564Z" fill="#272727"/>
<path d="M1205.01 284.973C1205.93 290.369 1203.04 294.295 1197.66 295.244C1192.26 296.191 1188.26 293.475 1187.35 288.079C1186.44 282.683 1189.3 278.755 1194.7 277.808C1200.09 276.859 1204.1 279.577 1205.01 284.973ZM1191.1 287.417C1191.69 290.931 1194 292.451 1197.09 291.909C1200.17 291.37 1201.84 289.147 1201.25 285.633C1200.65 282.119 1198.35 280.599 1195.27 281.145C1192.18 281.687 1190.5 283.912 1191.1 287.417Z" fill="#272727"/>
<path d="M1221.68 273.463L1223.5 284.205C1224.15 288.003 1221.78 291.005 1217.14 291.826C1212.5 292.643 1209.28 290.622 1208.64 286.823L1206.81 276.081L1210.51 275.428L1212.3 285.946C1212.64 287.957 1214.19 288.905 1216.57 288.485C1218.95 288.064 1220.1 286.641 1219.76 284.636L1217.97 274.118L1221.67 273.465L1221.68 273.463Z" fill="#272727"/>
<path d="M1224.08 273.042L1240.23 270.206L1240.81 273.623L1234.61 274.715L1236.85 287.967L1233.13 288.618L1230.89 275.367L1224.67 276.457L1224.09 273.04L1224.08 273.042Z" fill="#272727"/>
<path d="M1250.98 268.313C1254.63 267.671 1256.87 268.87 1257.33 271.553C1257.61 273.205 1257.06 274.678 1255.62 275.591C1257.55 275.864 1258.67 276.985 1258.98 278.833C1259.49 281.823 1257.48 284.339 1254.02 284.948L1245.57 286.436L1242.75 269.767L1250.98 268.322L1250.98 268.313ZM1248.72 282.443L1253.29 281.638C1254.7 281.389 1255.4 280.437 1255.2 279.254C1255 278.044 1254.01 277.461 1252.62 277.712L1248.05 278.515L1248.72 282.443ZM1247.59 275.749L1251.99 274.977C1253.28 274.749 1253.92 273.968 1253.74 272.942C1253.56 271.862 1252.65 271.462 1251.5 271.659L1247.02 272.449L1247.58 275.752L1247.59 275.749Z" fill="#272727"/>
<path d="M1269.52 265.052C1273.13 264.415 1275.54 266.506 1276.04 269.448C1276.43 271.8 1275.5 274.115 1273.47 275.38L1277.8 280.756L1273.56 281.502L1269.59 276.518L1266.07 277.138L1267 282.663L1263.3 283.316L1260.48 266.648L1269.54 265.054L1269.52 265.052ZM1265.49 273.805L1270.1 272.993C1271.65 272.719 1272.56 271.626 1272.33 270.253C1272.1 268.908 1270.95 268.315 1269.55 268.561L1264.75 269.407L1265.5 273.803L1265.49 273.805Z" fill="#272727"/>
<path d="M1282.98 266.206L1283.48 269.184L1291.71 267.738L1292.3 271.155L1284.07 272.6L1284.65 276.039L1293.6 274.468L1294.18 277.885L1281.52 280.111L1278.7 263.443L1291.36 261.216L1291.94 264.633L1282.99 266.204L1282.98 266.206ZM1300.03 259.688L1304.88 258.837L1314.51 274.308L1310.5 275.011L1308.51 271.735L1300.87 273.075L1300.07 276.846L1296.07 277.549L1300.03 259.688ZM1306.61 268.551L1303.03 262.677L1301.61 269.428L1306.61 268.551Z" fill="#272727"/>
<path d="M1324.48 262.159L1332.96 271.068L1328.48 271.858L1322.35 265.167L1320.09 268.196L1320.93 273.185L1317.23 273.838L1314.4 257.17L1318.11 256.516L1319.31 263.596L1325.02 255.301L1330.06 254.419L1324.47 262.163L1324.48 262.159Z" fill="#272727"/>
<path d="M1342.53 252.22L1345.35 268.888L1341.65 269.541L1338.82 252.873L1342.53 252.22Z" fill="#272727"/>
<path d="M1365.74 248.14L1368.56 264.808L1364.94 265.442L1362.94 253.632L1361.01 264.935L1356.78 265.681L1351.23 255.691L1353.24 267.5L1349.62 268.138L1346.8 251.47L1352.21 250.519L1358.24 261.396L1360.32 249.093L1365.74 248.14ZM1388.96 244.058L1391.78 260.726L1388.16 261.359L1386.16 249.55L1384.23 260.853L1380 261.598L1374.45 251.609L1376.46 263.418L1372.84 264.056L1370.02 247.388L1375.43 246.437L1381.45 257.314L1383.54 245.011L1388.96 244.058Z" fill="#272727"/>
<path d="M1396.94 242.659L1399.77 259.327L1396.06 259.98L1393.24 243.312L1396.94 242.659Z" fill="#272727"/>
<path d="M1416.5 239.217L1419.32 255.885L1415.17 256.617L1405.88 246.949L1407.74 257.924L1404.04 258.577L1401.21 241.909L1405.36 241.177L1414.67 250.94L1412.79 239.87L1416.5 239.217Z" fill="#272727"/>
<path d="M1425.05 241.237L1425.56 244.214L1433.79 242.768L1434.37 246.185L1426.14 247.631L1426.72 251.069L1435.67 249.498L1436.26 252.915L1423.59 255.142L1420.77 238.473L1433.43 236.247L1434.01 239.663L1425.06 241.235L1425.05 241.237Z" fill="#272727"/>
<path d="M1452.14 232.957L1454.97 249.625L1450.81 250.357L1441.53 240.689L1443.39 251.664L1439.68 252.317L1436.86 235.649L1441.01 234.917L1450.31 244.68L1448.44 233.61L1452.14 232.957Z" fill="#272727"/>
<path d="M198.93 461.811C199.843 467.206 196.961 471.133 191.576 472.082C186.175 473.028 182.177 470.313 181.264 464.917C180.351 459.521 183.218 455.593 188.619 454.646C194.004 453.697 198.018 456.415 198.93 461.811ZM185.015 464.255C185.608 467.768 187.918 469.288 191.006 468.747C194.087 468.207 195.757 465.985 195.164 462.471C194.571 458.957 192.261 457.437 189.182 457.983C186.094 458.525 184.418 460.749 185.015 464.255Z" fill="#272727"/>
<path d="M215.603 450.298L217.427 461.04C218.071 464.839 215.701 467.84 211.062 468.655C206.417 469.472 203.2 467.451 202.556 463.652L200.733 452.91L204.435 452.257L206.221 462.775C206.562 464.786 208.11 465.734 210.49 465.314C212.871 464.893 214.016 463.47 213.677 461.465L211.891 450.947L215.594 450.294L215.603 450.298Z" fill="#272727"/>
<path d="M217.999 449.88L234.144 447.044L234.726 450.461L228.524 451.553L230.767 464.804L227.049 465.456L224.806 452.204L218.589 453.294L218.006 449.878L217.999 449.88Z" fill="#272727"/>
<path d="M244.9 445.151C248.548 444.509 250.787 445.707 251.243 448.391C251.522 450.043 250.98 451.516 249.54 452.427C251.478 452.699 252.592 453.821 252.908 455.668C253.414 458.659 251.402 461.175 247.941 461.783L239.494 463.265L236.669 446.597L244.9 445.151ZM242.636 459.281L247.204 458.475C248.616 458.227 249.318 457.275 249.121 456.092C248.915 454.882 247.929 454.299 246.532 454.55L241.971 455.353L242.636 459.281ZM241.503 452.587L245.906 451.815C247.193 451.587 247.834 450.806 247.661 449.78C247.476 448.7 246.566 448.3 245.422 448.495L240.944 449.285L241.503 452.587Z" fill="#272727"/>
<path d="M263.439 441.89C267.051 441.252 269.456 443.343 269.954 446.286C270.35 448.638 269.415 450.953 267.389 452.217L271.717 457.594L267.481 458.339L263.503 453.355L259.987 453.975L260.921 459.5L257.218 460.154L254.392 443.486L263.454 441.892L263.439 441.89ZM259.41 450.642L264.02 449.83C265.571 449.557 266.481 448.464 266.25 447.091C266.022 445.745 264.871 445.153 263.466 445.399L258.669 446.245L259.417 450.64L259.41 450.642Z" fill="#272727"/>
<path d="M276.897 443.044L277.399 446.021L285.63 444.576L286.212 447.993L277.981 449.438L278.564 452.877L287.515 451.306L288.098 454.722L275.437 456.949L272.611 440.281L285.272 438.054L285.855 441.471L276.903 443.042L276.897 443.044ZM293.945 436.526L298.799 435.675L308.424 451.153L304.422 451.855L302.428 448.579L294.792 449.92L293.99 453.691L289.989 454.393L293.947 436.532L293.945 436.526ZM300.521 445.389L296.95 439.515L295.523 446.266L300.521 445.389ZM318.396 438.996L326.878 447.905L322.4 448.695L316.269 442.003L314.011 445.032L314.854 450.02L311.151 450.674L308.326 434.005L312.028 433.352L313.232 440.431L318.944 432.137L323.978 431.255L318.389 438.999L318.396 438.996Z" fill="#272727"/>
<path d="M336.444 429.057L339.27 445.726L335.567 446.379L332.741 429.711L336.444 429.057Z" fill="#272727"/>
<path d="M359.656 424.977L362.481 441.646L358.86 442.279L356.856 430.47L354.931 441.773L350.695 442.518L345.15 432.529L347.154 444.338L343.541 444.976L340.716 428.308L346.129 427.356L352.154 438.234L354.235 425.931L359.656 424.977ZM382.874 420.895L385.699 437.564L382.078 438.197L380.074 426.388L378.15 437.691L373.913 438.436L368.368 428.447L370.372 440.256L366.759 440.894L363.934 424.225L369.347 423.274L375.372 434.152L377.454 421.849L382.874 420.895Z" fill="#272727"/>
<path d="M390.856 419.496L393.682 436.165L389.979 436.818L387.153 420.15L390.856 419.496Z" fill="#272727"/>
<path d="M410.411 416.054L413.237 432.723L409.084 433.454L399.799 423.786L401.656 434.761L397.953 435.415L395.128 418.746L399.281 418.015L408.583 427.778L406.708 416.708L410.411 416.054Z" fill="#272727"/>
<path d="M418.971 418.075L419.473 421.052L427.704 419.606L428.287 423.023L420.055 424.469L420.638 427.907L429.589 426.336L430.172 429.753L417.511 431.98L414.685 415.311L427.346 413.084L427.929 416.501L418.977 418.072L418.971 418.075Z" fill="#272727"/>
<path d="M446.058 409.794L448.883 426.463L444.73 427.194L435.445 417.526L437.303 428.501L433.6 429.155L430.774 412.486L434.927 411.755L444.229 421.518L442.355 410.448L446.058 409.794Z" fill="#272727"/>
<path d="M448.577 409.349L464.721 406.514L465.303 409.93L459.101 411.022L461.344 424.274L457.626 424.925L455.383 411.674L449.166 412.764L448.583 409.347L448.577 409.349Z" fill="#272727"/>
<path d="M489.375 412.958C490.715 412.511 491.447 411.084 491.009 409.771C490.571 408.458 489.13 407.756 487.789 408.203C486.449 408.65 485.717 410.077 486.155 411.39C486.593 412.703 488.035 413.405 489.375 412.958Z" fill="black"/>
<path d="M483.821 411.113L480.378 411.271C479.879 411.358 479.558 411.845 479.687 412.319C480.414 415.092 482.332 417.504 485.099 418.792C485.552 419.007 486.102 418.788 486.276 418.321L487.003 414.941C487.119 414.651 487 414.317 486.718 414.174C485.618 413.622 484.847 412.652 484.527 411.538C484.441 411.236 484.133 411.059 483.819 411.107L483.821 411.113Z" fill="black"/>
<path d="M490.471 406.289L492.038 403.254C492.079 403.143 492.096 403.025 492.088 402.908C492.08 402.791 492.047 402.677 491.991 402.574C491.935 402.471 491.858 402.38 491.764 402.309C491.67 402.237 491.561 402.186 491.446 402.159C488.622 401.471 485.53 401.978 483.005 403.746C482.589 404.036 482.515 404.606 482.84 404.986L485.481 407.214C485.683 407.448 486.04 407.508 486.305 407.334C487.344 406.65 488.59 406.45 489.735 406.7C490.044 406.769 490.357 406.586 490.471 406.289Z" fill="black"/>
<path d="M491.437 414.108L493.327 416.917C493.404 417.005 493.499 417.076 493.606 417.125C493.713 417.175 493.829 417.202 493.948 417.205C494.067 417.207 494.185 417.186 494.296 417.142C494.406 417.098 494.506 417.032 494.59 416.948C495.626 415.894 496.42 414.634 496.915 413.255C497.411 411.876 497.597 410.411 497.46 408.962C497.412 408.468 496.945 408.122 496.451 408.222L493.151 409.401C492.841 409.462 492.609 409.733 492.627 410.05C492.703 411.267 492.255 412.428 491.451 413.292C491.234 413.522 491.237 413.881 491.439 414.115L491.437 414.108Z" fill="black"/>
<path d="M825.06 353.957C826.4 353.51 827.132 352.083 826.694 350.77C826.256 349.457 824.814 348.755 823.474 349.202C822.133 349.649 821.402 351.076 821.84 352.389C822.278 353.702 823.719 354.404 825.06 353.957Z" fill="black"/>
<path d="M819.512 352.11L816.069 352.267C815.571 352.355 815.25 352.842 815.378 353.316C816.105 356.089 818.023 358.501 820.791 359.789C821.244 360.004 821.793 359.785 821.967 359.317L822.694 355.938C822.81 355.648 822.691 355.314 822.409 355.171C821.309 354.619 820.538 353.649 820.218 352.535C820.132 352.233 819.824 352.056 819.51 352.103L819.512 352.11Z" fill="black"/>
<path d="M826.155 347.288L827.722 344.253C827.763 344.142 827.78 344.024 827.772 343.907C827.764 343.79 827.731 343.676 827.675 343.573C827.62 343.469 827.542 343.379 827.448 343.308C827.354 343.236 827.246 343.185 827.13 343.158C824.306 342.47 821.214 342.977 818.69 344.745C818.273 345.035 818.2 345.605 818.524 345.985L821.165 348.213C821.368 348.447 821.725 348.507 821.989 348.333C823.029 347.649 824.274 347.449 825.42 347.698C825.729 347.768 826.042 347.584 826.155 347.288Z" fill="black"/>
<path d="M827.129 355.105L829.018 357.913C829.095 358.001 829.19 358.072 829.297 358.122C829.404 358.171 829.521 358.198 829.639 358.201C829.758 358.204 829.876 358.183 829.987 358.139C830.097 358.094 830.198 358.028 830.281 357.944C831.318 356.891 832.111 355.631 832.607 354.252C833.102 352.873 833.288 351.408 833.151 349.959C833.104 349.465 832.636 349.118 832.142 349.218L828.842 350.398C828.532 350.458 828.3 350.729 828.318 351.047C828.394 352.263 827.946 353.425 827.142 354.289C826.926 354.519 826.928 354.877 827.131 355.111L827.129 355.105Z" fill="black"/>
<path d="M1167.85 293.705C1169.19 293.258 1169.93 291.831 1169.49 290.518C1169.05 289.205 1167.61 288.503 1166.27 288.95C1164.93 289.397 1164.2 290.823 1164.63 292.137C1165.07 293.45 1166.51 294.152 1167.85 293.705Z" fill="black"/>
<path d="M1162.3 291.86L1158.86 292.017C1158.36 292.105 1158.04 292.592 1158.17 293.066C1158.89 295.839 1160.81 298.251 1163.58 299.539C1164.03 299.754 1164.58 299.535 1164.75 299.067L1165.48 295.688C1165.6 295.398 1165.48 295.064 1165.2 294.921C1164.1 294.369 1163.33 293.399 1163.01 292.285C1162.92 291.983 1162.61 291.806 1162.3 291.853L1162.3 291.86Z" fill="black"/>
<path d="M1168.95 287.036L1170.52 284C1170.56 283.889 1170.57 283.772 1170.57 283.655C1170.56 283.537 1170.53 283.424 1170.47 283.32C1170.41 283.217 1170.34 283.127 1170.24 283.056C1170.15 282.984 1170.04 282.933 1169.92 282.906C1167.1 282.218 1164.01 282.725 1161.48 284.493C1161.07 284.783 1160.99 285.353 1161.32 285.733L1163.96 287.961C1164.16 288.194 1164.52 288.255 1164.78 288.081C1165.82 287.396 1167.07 287.196 1168.21 287.446C1168.52 287.515 1168.84 287.332 1168.95 287.036Z" fill="black"/>
<path d="M1169.92 294.853L1171.81 297.661C1171.89 297.749 1171.98 297.82 1172.09 297.869C1172.2 297.919 1172.31 297.946 1172.43 297.949C1172.55 297.952 1172.67 297.93 1172.78 297.886C1172.89 297.842 1172.99 297.776 1173.08 297.692C1174.11 296.639 1174.91 295.378 1175.4 293.999C1175.9 292.621 1176.08 291.156 1175.95 289.707C1175.9 289.213 1175.43 288.866 1174.94 288.966L1171.64 290.146C1171.33 290.206 1171.09 290.477 1171.11 290.794C1171.19 292.011 1170.74 293.173 1169.94 294.037C1169.72 294.267 1169.72 294.625 1169.92 294.859L1169.92 294.853Z" fill="black"/>
</g>
<defs>
<clipPath id="clip0_1317_2161">
<rect width="1526" height="263" fill="white" transform="translate(-37.3076 297.034)"/>
</clipPath>
<clipPath id="clip1_1317_2161">
<rect width="1526" height="263" fill="white" transform="translate(-19.959 482.828) rotate(-18.4442)"/>
</clipPath>
</defs>
</svg>
