<svg width="301" height="300" viewBox="0 0 301 300" fill="none" xmlns="http://www.w3.org/2000/svg">
<path d="M250.354 182.826C250.354 237.935 205.622 282.609 150.441 282.609C95.2608 282.609 50.5283 237.935 50.5283 182.826C50.5283 127.718 95.2608 83.0442 150.441 83.0442C205.622 83.0442 250.354 127.718 250.354 182.826Z" fill="#F8C453"/>
<path d="M243.339 177.298C243.339 227.247 202.848 267.738 152.899 267.738C102.95 267.738 62.459 227.247 62.459 177.298C62.459 127.35 102.95 86.8577 152.899 86.8577C202.848 86.8577 243.339 127.35 243.339 177.298Z" fill="#FFD85E"/>
<path d="M100.202 205.412C106.851 200.797 153.887 170.764 206.078 205.435" stroke="#211B16" stroke-width="16.66" stroke-linecap="round"/>
<path d="M133.094 205.751C136.617 205.035 153.072 202.102 172.482 205.303" stroke="#FFC547" stroke-width="16.66" stroke-linecap="round"/>
<path d="M136.729 144.483C136.729 157.336 126.309 167.755 113.457 167.755C100.604 167.755 90.1846 157.336 90.1846 144.483C90.1846 131.63 100.604 121.211 113.457 121.211C126.309 121.211 136.729 131.63 136.729 144.483Z" fill="white"/>
<path d="M125.479 144.483C125.479 151.122 120.096 156.505 113.457 156.505C106.817 156.505 101.435 151.122 101.435 144.483C101.435 137.843 106.817 132.46 113.457 132.46C120.096 132.46 125.479 137.843 125.479 144.483Z" fill="#211B16"/>
<path d="M112.228 137.733C112.228 139.54 110.763 141.005 108.956 141.005C107.149 141.005 105.684 139.54 105.684 137.733C105.684 135.925 107.149 134.46 108.956 134.46C110.763 134.46 112.228 135.925 112.228 137.733Z" fill="white"/>
<path d="M136.729 144.483C136.729 131.63 126.31 121.211 113.457 121.211C100.604 121.211 90.1846 131.63 90.1846 144.483" fill="#F8C453"/>
<path d="M136.729 144.483C136.729 157.336 126.31 167.755 113.457 167.755C100.604 167.755 90.1846 157.336 90.1846 144.483" fill="#F8C453"/>
<path d="M169.069 144.483C169.069 157.336 179.489 167.755 192.342 167.755C205.195 167.755 215.614 157.336 215.614 144.483C215.614 131.63 205.195 121.211 192.342 121.211C179.489 121.211 169.069 131.63 169.069 144.483Z" fill="white"/>
<path d="M180.32 144.483C180.32 151.122 185.703 156.505 192.343 156.505C198.982 156.505 204.365 151.122 204.365 144.483C204.365 137.843 198.982 132.46 192.343 132.46C185.703 132.46 180.32 137.843 180.32 144.483Z" fill="#211B16"/>
<path d="M184.57 137.733C184.57 139.54 186.035 141.005 187.843 141.005C189.65 141.005 191.115 139.54 191.115 137.733C191.115 135.925 189.65 134.46 187.843 134.46C186.035 134.46 184.57 135.925 184.57 137.733Z" fill="white"/>
<path d="M215.614 144.483C215.614 131.63 205.195 121.21 192.342 121.21C179.489 121.21 169.07 131.63 169.07 144.483" fill="#F8C453"/>
<path d="M169.07 144.483C169.07 157.336 179.489 167.755 192.342 167.755C205.195 167.755 215.614 157.336 215.614 144.483" fill="#F8C453"/>
<path d="M113.974 153.591C103.856 153.591 94.6139 148.925 90.3484 141.632C89.2439 139.745 89.8789 137.32 91.7664 136.216C93.6539 135.111 96.0789 135.746 97.1834 137.634C100.009 142.464 106.733 145.672 113.979 145.672C114.081 145.672 114.18 145.672 114.282 145.671C121.222 145.585 126.979 142.612 129.682 137.719C130.738 135.805 133.147 135.109 135.062 136.167C136.976 137.224 137.671 139.633 136.614 141.548C132.516 148.967 124.205 153.468 114.38 153.589C114.244 153.591 114.109 153.591 113.974 153.591Z" fill="#211A15"/>
<path d="M191.825 153.591C191.69 153.591 191.555 153.591 191.419 153.589C181.594 153.468 173.282 148.967 169.185 141.548C168.127 139.633 168.822 137.224 170.736 136.167C172.651 135.109 175.06 135.805 176.117 137.719C178.82 142.612 184.576 145.585 191.517 145.671C198.877 145.75 205.751 142.532 208.615 137.634C209.719 135.746 212.144 135.111 214.032 136.216C215.92 137.32 216.555 139.745 215.451 141.632C211.185 148.925 201.943 153.591 191.825 153.591Z" fill="#211A15"/>
<path d="M266.753 31.3494L267.168 48.5704L258.091 31.3494H247.666L248.289 66.4459H257.106L257.365 49.4764L267.219 66.4459H276.192L276.866 31.3494H266.753Z" fill="#D63401"/>
<path d="M229.847 31.3494L230.469 66.4459H239.597L240.272 31.3494H229.847Z" fill="#D63401"/>
<path d="M215.568 31.3494H202.653L192.332 66.4459H201.616L203.846 59.5979H214.064L216.294 66.4459H225.941L215.568 31.3494ZM206.025 52.6994L208.877 41.5709H209.085L211.833 52.6994H206.025Z" fill="#D63401"/>
<path d="M189.714 32.9099C186.394 30.9459 182.453 30.4929 178.667 30.4929C167.516 30.4929 160.41 37.6934 160.41 48.4694C160.41 59.2454 166.686 67.3019 178.252 67.3019C181.986 67.3019 185.928 66.6974 189.195 64.8849L189.454 48.0669H175.295V54.6629L180.119 54.7134V59.5474C179.6 59.6984 178.978 59.7489 178.407 59.7489C172.443 59.7489 170.835 53.5554 170.835 48.8724C170.835 43.0314 173.999 39.0029 180.326 39.0029C183.49 39.0029 187.069 39.6574 189.558 41.7219L189.714 32.9099Z" fill="#D63401"/>
<path d="M148.979 31.3494H136.065L125.743 66.4459H135.027L137.257 59.5979H147.475L149.705 66.4459H159.352L148.979 31.3494ZM139.436 52.6994L142.288 41.5709H142.496L145.245 52.6994H139.436Z" fill="#D63401"/>
<path d="M99.6314 31.3494L94.7559 42.6789L89.5694 31.3494H78.1074L89.5694 50.4839L89.9324 66.4459H99.1129L99.5274 50.3829L110.315 31.3494H99.6314Z" fill="#D63401"/>
<path d="M77.4997 41.0674C77.4997 33.2124 71.8982 31.3494 64.8447 31.3494H50.1152L50.7377 66.4459H59.8657L60.1252 51.5409L66.7122 66.4459H76.5142L69.9797 51.3399C74.8552 50.0309 77.4997 45.8509 77.4997 41.0674ZM67.2307 42.4774C67.2307 44.9949 65.7267 46.1029 63.2372 46.1029H60.1772L60.3327 39.3554H63.1852C65.3117 39.3554 67.2307 40.1109 67.2307 42.4774Z" fill="#D63401"/>
<path d="M46.1464 31.3494H21.0439V40.0604H28.5124L29.0314 66.4459H38.1594L38.6264 40.0604H46.1464V31.3494Z" fill="#D63401"/>
</svg>
