<svg width="21" height="23" viewBox="0 0 21 23" fill="none" xmlns="http://www.w3.org/2000/svg">
<path d="M4 1.5C4 1.23478 4.10536 0.98043 4.29289 0.792893C4.48043 0.605357 4.73478 0.5 5 0.5H13C13.2652 0.5 13.5196 0.605357 13.7071 0.792893C13.8946 0.98043 14 1.23478 14 1.5C14 1.76522 13.8946 2.01957 13.7071 2.20711C13.5196 2.39464 13.2652 2.5 13 2.5H5C4.73478 2.5 4.48043 2.39464 4.29289 2.20711C4.10536 2.01957 4 1.76522 4 1.5ZM8 15.5C8 15.7652 8.10536 16.0196 8.29289 16.2071C8.48043 16.3946 8.73478 16.5 9 16.5C9.26522 16.5 9.51957 16.3946 9.70711 16.2071C9.89464 16.0196 10 15.7652 10 15.5V9.5C10 9.23478 9.89464 8.98043 9.70711 8.79289C9.51957 8.60536 9.26522 8.5 9 8.5C8.73478 8.5 8.48043 8.60536 8.29289 8.79289C8.10536 8.98043 8 9.23478 8 9.5V15.5ZM9 4.5C7.8181 4.5 6.64778 4.73279 5.55585 5.18508C4.46392 5.63738 3.47177 6.30031 2.63604 7.13604C1.80031 7.97177 1.13738 8.96392 0.685084 10.0558C0.232792 11.1478 0 12.3181 0 13.5C0 14.6819 0.232792 15.8522 0.685084 16.9442C1.13738 18.0361 1.80031 19.0282 2.63604 19.864C3.47177 20.6997 4.46392 21.3626 5.55585 21.8149C6.64778 22.2672 7.8181 22.5 9 22.5C11.3869 22.5 13.6761 21.5518 15.364 19.864C17.0518 18.1761 18 15.8869 18 13.5C18 11.1131 17.0518 8.82387 15.364 7.13604C13.6761 5.44821 11.3869 4.5 9 4.5ZM2 13.5C2 12.5807 2.18106 11.6705 2.53284 10.8212C2.88463 9.97194 3.40024 9.20026 4.05025 8.55025C4.70026 7.90024 5.47194 7.38463 6.32122 7.03284C7.1705 6.68106 8.08075 6.5 9 6.5C9.91925 6.5 10.8295 6.68106 11.6788 7.03284C12.5281 7.38463 13.2997 7.90024 13.9497 8.55025C14.5998 9.20026 15.1154 9.97194 15.4672 10.8212C15.8189 11.6705 16 12.5807 16 13.5C16 15.3565 15.2625 17.137 13.9497 18.4497C12.637 19.7625 10.8565 20.5 9 20.5C7.14349 20.5 5.36301 19.7625 4.05025 18.4497C2.7375 17.137 2 15.3565 2 13.5ZM18.296 8.206C18.3884 8.30137 18.4988 8.37739 18.6209 8.42962C18.743 8.48185 18.8742 8.50924 19.007 8.5102C19.1398 8.51117 19.2714 8.48568 19.3943 8.43522C19.5171 8.38477 19.6286 8.31036 19.7224 8.21634C19.8161 8.12231 19.8902 8.01056 19.9403 7.8876C19.9904 7.76464 20.0156 7.63293 20.0142 7.50015C20.0129 7.36738 19.9851 7.23621 19.9325 7.11428C19.88 6.99235 19.8036 6.88211 19.708 6.79L17.704 4.794C17.6116 4.69863 17.5012 4.62261 17.3791 4.57038C17.257 4.51815 17.1258 4.49076 16.993 4.4898C16.8602 4.48883 16.7286 4.51432 16.6057 4.56478C16.4829 4.61523 16.3714 4.68964 16.2776 4.78366C16.1839 4.87769 16.1098 4.98944 16.0597 5.1124C16.0096 5.23536 15.9845 5.36707 15.9858 5.49985C15.9871 5.63262 16.0149 5.76379 16.0675 5.88572C16.12 6.00765 16.1964 6.11789 16.292 6.21L18.296 8.206Z" fill="white"/>
</svg>
